ISO-10303-21;
HEADER;
FILE_DESCRIPTION(('Open CASCADE Model'),'2;1');
FILE_NAME('Open CASCADE Shape Model','2026-08-09T16:37:55',('Author'),(
    'Open CASCADE'),'Open CASCADE STEP processor 7.7','Open CASCADE 7.7'
  ,'Unknown');
FILE_SCHEMA(('AUTOMOTIVE_DESIGN { 1 0 10303 214 1 1 1 1 }'));
ENDSEC;
DATA;
#1 = APPLICATION_PROTOCOL_DEFINITION('international standard',
  'automotive_design',2000,#2);
#2 = APPLICATION_CONTEXT(
  'core data for automotive mechanical design processes');
#3 = SHAPE_DEFINITION_REPRESENTATION(#4,#10);
#4 = PRODUCT_DEFINITION_SHAPE('','',#5);
#5 = PRODUCT_DEFINITION('design','',#6,#9);
#6 = PRODUCT_DEFINITION_FORMATION('','',#7);
#7 = PRODUCT('Open CASCADE STEP translator 7.7 15',
  'Open CASCADE STEP translator 7.7 15','',(#8));
#8 = PRODUCT_CONTEXT('',#2,'mechanical');
#9 = PRODUCT_DEFINITION_CONTEXT('part definition',#2,'design');
#10 = ADVANCED_BREP_SHAPE_REPRESENTATION('',(#11,#15),#200);
#11 = AXIS2_PLACEMENT_3D('',#12,#13,#14);
#12 = CARTESIAN_POINT('',(0.,0.,0.));
#13 = DIRECTION('',(0.,0.,1.));
#14 = DIRECTION('',(1.,0.,-0.));
#15 = MANIFOLD_SOLID_BREP('',#16);
#16 = CLOSED_SHELL('',(#17,#192,#196));
#17 = ADVANCED_FACE('',(#18),#42,.T.);
#18 = FACE_BOUND('',#19,.T.);
#19 = EDGE_LOOP('',(#20,#118,#141,#191));
#20 = ORIENTED_EDGE('',*,*,#21,.T.);
#21 = EDGE_CURVE('',#22,#22,#24,.T.);
#22 = VERTEX_POINT('',#23);
#23 = CARTESIAN_POINT('',(10.,0.,0.));
#24 = SURFACE_CURVE('',#25,(#41,#94),.PCURVE_S1.);
#25 = B_SPLINE_CURVE_WITH_KNOTS('',14,(#26,#27,#28,#29,#30,#31,#32,#33,
    #34,#35,#36,#37,#38,#39,#40),.UNSPECIFIED.,.T.,.F.,(15,15),(0.,1.),
  .PIECEWISE_BEZIER_KNOTS.);
#26 = CARTESIAN_POINT('',(10.,8.646711388483E-15,0.));
#27 = CARTESIAN_POINT('',(10.000000000001,4.487989505132,0.));
#28 = CARTESIAN_POINT('',(7.830856388003,8.975980666875,0.));
#29 = CARTESIAN_POINT('',(3.492566390975,12.328193465735,0.));
#30 = CARTESIAN_POINT('',(-2.366106147375,13.408975958254,0.));
#31 = CARTESIAN_POINT('',(-8.447756604053,11.489768610112,0.));
#32 = CARTESIAN_POINT('',(-13.09041701655,6.658852452629,0.));
#33 = CARTESIAN_POINT('',(-14.83828602051,1.500601675017E-10,0.));
#34 = CARTESIAN_POINT('',(-13.09041701656,-6.658852452904,0.));
#35 = CARTESIAN_POINT('',(-8.447756604045,-11.4897686099,0.));
#36 = CARTESIAN_POINT('',(-2.366106147382,-13.40897595838,0.));
#37 = CARTESIAN_POINT('',(3.492566390979,-12.32819346566,0.));
#38 = CARTESIAN_POINT('',(7.830856388001,-8.975980666898,0.));
#39 = CARTESIAN_POINT('',(10.000000000001,-4.487989505126,0.));
#40 = CARTESIAN_POINT('',(10.,-1.266957077649E-14,0.));
#41 = PCURVE('',#42,#88);
#42 = B_SPLINE_SURFACE_WITH_KNOTS('',14,2,(
    (#43,#44,#45)
    ,(#46,#47,#48)
    ,(#49,#50,#51)
    ,(#52,#53,#54)
    ,(#55,#56,#57)
    ,(#58,#59,#60)
    ,(#61,#62,#63)
    ,(#64,#65,#66)
    ,(#67,#68,#69)
    ,(#70,#71,#72)
    ,(#73,#74,#75)
    ,(#76,#77,#78)
    ,(#79,#80,#81)
    ,(#82,#83,#84)
    ,(#85,#86,#87
    )),.UNSPECIFIED.,.T.,.F.,.F.,(15,15),(3,3),(0.,1.),(0.,1.),
  .PIECEWISE_BEZIER_KNOTS.);
#43 = CARTESIAN_POINT('',(10.,8.646711388483E-15,0.));
#44 = CARTESIAN_POINT('',(22.,3.863088620991E-14,20.));
#45 = CARTESIAN_POINT('',(10.,8.646711388483E-15,40.));
#46 = CARTESIAN_POINT('',(10.000000000001,4.487989505132,0.));
#47 = CARTESIAN_POINT('',(22.000000000011,9.87357691129,20.));
#48 = CARTESIAN_POINT('',(10.000000000001,4.487989505132,40.));
#49 = CARTESIAN_POINT('',(7.830856388003,8.975980666875,0.));
#50 = CARTESIAN_POINT('',(17.227884053565,19.747157467122,20.));
#51 = CARTESIAN_POINT('',(7.830856388003,8.975980666875,40.));
#52 = CARTESIAN_POINT('',(3.492566390975,12.328193465735,0.));
#53 = CARTESIAN_POINT('',(7.683646060258,27.122025624622,20.));
#54 = CARTESIAN_POINT('',(3.492566390975,12.328193465735,40.));
#55 = CARTESIAN_POINT('',(-2.366106147375,13.408975958254,0.));
#56 = CARTESIAN_POINT('',(-5.205433524458,29.499747108151,20.));
#57 = CARTESIAN_POINT('',(-2.366106147375,13.408975958254,40.));
#58 = CARTESIAN_POINT('',(-8.447756604053,11.489768610112,0.));
#59 = CARTESIAN_POINT('',(-18.58506452854,25.277490942251,20.));
#60 = CARTESIAN_POINT('',(-8.447756604053,11.489768610112,40.));
#61 = CARTESIAN_POINT('',(-13.09041701655,6.658852452629,0.));
#62 = CARTESIAN_POINT('',(-28.79891743691,14.649475395792,20.));
#63 = CARTESIAN_POINT('',(-13.09041701655,6.658852452629,40.));
#64 = CARTESIAN_POINT('',(-14.83828602051,1.500601675017E-10,0.));
#65 = CARTESIAN_POINT('',(-32.6442292446,3.029211645774E-10,20.));
#66 = CARTESIAN_POINT('',(-14.83828602051,1.500601675017E-10,40.));
#67 = CARTESIAN_POINT('',(-13.09041701656,-6.658852452904,0.));
#68 = CARTESIAN_POINT('',(-28.79891743691,-14.64947539634,20.));
#69 = CARTESIAN_POINT('',(-13.09041701656,-6.658852452904,40.));
#70 = CARTESIAN_POINT('',(-8.447756604045,-11.4897686099,0.));
#71 = CARTESIAN_POINT('',(-18.58506452855,-25.27749094182,20.));
#72 = CARTESIAN_POINT('',(-8.447756604045,-11.4897686099,40.));
#73 = CARTESIAN_POINT('',(-2.366106147382,-13.40897595838,0.));
#74 = CARTESIAN_POINT('',(-5.205433524449,-29.49974710842,20.));
#75 = CARTESIAN_POINT('',(-2.366106147382,-13.40897595838,40.));
#76 = CARTESIAN_POINT('',(3.492566390979,-12.32819346566,0.));
#77 = CARTESIAN_POINT('',(7.683646060253,-27.12202562448,20.));
#78 = CARTESIAN_POINT('',(3.492566390979,-12.32819346566,40.));
#79 = CARTESIAN_POINT('',(7.830856388001,-8.975980666898,0.));
#80 = CARTESIAN_POINT('',(17.227884053567,-19.74715746717,20.));
#81 = CARTESIAN_POINT('',(7.830856388001,-8.975980666898,40.));
#82 = CARTESIAN_POINT('',(10.000000000001,-4.487989505126,0.));
#83 = CARTESIAN_POINT('',(22.00000000001,-9.873576911279,20.));
#84 = CARTESIAN_POINT('',(10.000000000001,-4.487989505126,40.));
#85 = CARTESIAN_POINT('',(10.,-1.266957077649E-14,0.));
#86 = CARTESIAN_POINT('',(22.,-3.952881492647E-14,20.));
#87 = CARTESIAN_POINT('',(10.,-1.266957077649E-14,40.));
#88 = DEFINITIONAL_REPRESENTATION('',(#89),#93);
#89 = LINE('',#90,#91);
#90 = CARTESIAN_POINT('',(0.,0.));
#91 = VECTOR('',#92,1.);
#92 = DIRECTION('',(1.,0.));
#93 = ( GEOMETRIC_REPRESENTATION_CONTEXT(2) 
PARAMETRIC_REPRESENTATION_CONTEXT() REPRESENTATION_CONTEXT('2D SPACE',''
  ) );
#94 = PCURVE('',#95,#100);
#95 = PLANE('',#96);
#96 = AXIS2_PLACEMENT_3D('',#97,#98,#99);
#97 = CARTESIAN_POINT('',(10.,8.646711388483E-15,0.));
#98 = DIRECTION('',(0.,0.,1.));
#99 = DIRECTION('',(-1.,-3.324154972299E-16,0.));
#100 = DEFINITIONAL_REPRESENTATION('',(#101),#117);
#101 = B_SPLINE_CURVE_WITH_KNOTS('',14,(#102,#103,#104,#105,#106,#107,
    #108,#109,#110,#111,#112,#113,#114,#115,#116),.UNSPECIFIED.,.F.,.F.,
  (15,15),(0.,1.),.PIECEWISE_BEZIER_KNOTS.);
#102 = CARTESIAN_POINT('',(0.,0.));
#103 = CARTESIAN_POINT('',(-9.166001291305E-13,-4.487989505131));
#104 = CARTESIAN_POINT('',(2.169143611997,-8.975980666875));
#105 = CARTESIAN_POINT('',(6.507433609025,-12.32819346573));
#106 = CARTESIAN_POINT('',(12.366106147375,-13.40897595825));
#107 = CARTESIAN_POINT('',(18.447756604053,-11.48976861011));
#108 = CARTESIAN_POINT('',(23.090417016559,-6.658852452629));
#109 = CARTESIAN_POINT('',(24.838286020513,-1.500597774215E-10));
#110 = CARTESIAN_POINT('',(23.090417016564,6.658852452904));
#111 = CARTESIAN_POINT('',(18.447756604045,11.489768609902));
#112 = CARTESIAN_POINT('',(12.366106147382,13.408975958386));
#113 = CARTESIAN_POINT('',(6.507433609021,12.328193465669));
#114 = CARTESIAN_POINT('',(2.169143611999,8.975980666898));
#115 = CARTESIAN_POINT('',(-1.268318783332E-12,4.487989505126));
#116 = CARTESIAN_POINT('',(3.552713678801E-15,2.131628216497E-14));
#117 = ( GEOMETRIC_REPRESENTATION_CONTEXT(2) 
PARAMETRIC_REPRESENTATION_CONTEXT() REPRESENTATION_CONTEXT('2D SPACE',''
  ) );
#118 = ORIENTED_EDGE('',*,*,#119,.T.);
#119 = EDGE_CURVE('',#22,#120,#122,.T.);
#120 = VERTEX_POINT('',#121);
#121 = CARTESIAN_POINT('',(10.,0.,40.));
#122 = SEAM_CURVE('',#123,(#127,#134),.PCURVE_S1.);
#123 = B_SPLINE_CURVE_WITH_KNOTS('',2,(#124,#125,#126),.UNSPECIFIED.,.F.
  ,.F.,(3,3),(0.,1.),.PIECEWISE_BEZIER_KNOTS.);
#124 = CARTESIAN_POINT('',(10.,8.646711388483E-15,0.));
#125 = CARTESIAN_POINT('',(22.,3.863088620991E-14,20.));
#126 = CARTESIAN_POINT('',(10.,8.646711388483E-15,40.));
#127 = PCURVE('',#42,#128);
#128 = DEFINITIONAL_REPRESENTATION('',(#129),#133);
#129 = LINE('',#130,#131);
#130 = CARTESIAN_POINT('',(1.,0.));
#131 = VECTOR('',#132,1.);
#132 = DIRECTION('',(0.,1.));
#133 = ( GEOMETRIC_REPRESENTATION_CONTEXT(2) 
PARAMETRIC_REPRESENTATION_CONTEXT() REPRESENTATION_CONTEXT('2D SPACE',''
  ) );
#134 = PCURVE('',#42,#135);
#135 = DEFINITIONAL_REPRESENTATION('',(#136),#140);
#136 = LINE('',#137,#138);
#137 = CARTESIAN_POINT('',(0.,0.));
#138 = VECTOR('',#139,1.);
#139 = DIRECTION('',(0.,1.));
#140 = ( GEOMETRIC_REPRESENTATION_CONTEXT(2) 
PARAMETRIC_REPRESENTATION_CONTEXT() REPRESENTATION_CONTEXT('2D SPACE',''
  ) );
#141 = ORIENTED_EDGE('',*,*,#142,.F.);
#142 = EDGE_CURVE('',#120,#120,#143,.T.);
#143 = SURFACE_CURVE('',#144,(#160,#167),.PCURVE_S1.);
#144 = B_SPLINE_CURVE_WITH_KNOTS('',14,(#145,#146,#147,#148,#149,#150,
    #151,#152,#153,#154,#155,#156,#157,#158,#159),.UNSPECIFIED.,.T.,.F.,
  (15,15),(0.,1.),.PIECEWISE_BEZIER_KNOTS.);
#145 = CARTESIAN_POINT('',(10.,8.646711388483E-15,40.));
#146 = CARTESIAN_POINT('',(10.000000000001,4.487989505132,40.));
#147 = CARTESIAN_POINT('',(7.830856388003,8.975980666875,40.));
#148 = CARTESIAN_POINT('',(3.492566390975,12.328193465735,40.));
#149 = CARTESIAN_POINT('',(-2.366106147375,13.408975958254,40.));
#150 = CARTESIAN_POINT('',(-8.447756604053,11.489768610112,40.));
#151 = CARTESIAN_POINT('',(-13.09041701655,6.658852452629,40.));
#152 = CARTESIAN_POINT('',(-14.83828602051,1.500601675017E-10,40.));
#153 = CARTESIAN_POINT('',(-13.09041701656,-6.658852452904,40.));
#154 = CARTESIAN_POINT('',(-8.447756604045,-11.4897686099,40.));
#155 = CARTESIAN_POINT('',(-2.366106147382,-13.40897595838,40.));
#156 = CARTESIAN_POINT('',(3.492566390979,-12.32819346566,40.));
#157 = CARTESIAN_POINT('',(7.830856388001,-8.975980666898,40.));
#158 = CARTESIAN_POINT('',(10.000000000001,-4.487989505126,40.));
#159 = CARTESIAN_POINT('',(10.,-1.266957077649E-14,40.));
#160 = PCURVE('',#42,#161);
#161 = DEFINITIONAL_REPRESENTATION('',(#162),#166);
#162 = LINE('',#163,#164);
#163 = CARTESIAN_POINT('',(0.,1.));
#164 = VECTOR('',#165,1.);
#165 = DIRECTION('',(1.,0.));
#166 = ( GEOMETRIC_REPRESENTATION_CONTEXT(2) 
PARAMETRIC_REPRESENTATION_CONTEXT() REPRESENTATION_CONTEXT('2D SPACE',''
  ) );
#167 = PCURVE('',#168,#173);
#168 = PLANE('',#169);
#169 = AXIS2_PLACEMENT_3D('',#170,#171,#172);
#170 = CARTESIAN_POINT('',(10.,8.646711388483E-15,40.));
#171 = DIRECTION('',(0.,0.,1.));
#172 = DIRECTION('',(-1.,-3.324154972299E-16,0.));
#173 = DEFINITIONAL_REPRESENTATION('',(#174),#190);
#174 = B_SPLINE_CURVE_WITH_KNOTS('',14,(#175,#176,#177,#178,#179,#180,
    #181,#182,#183,#184,#185,#186,#187,#188,#189),.UNSPECIFIED.,.F.,.F.,
  (15,15),(0.,1.),.PIECEWISE_BEZIER_KNOTS.);
#175 = CARTESIAN_POINT('',(0.,0.));
#176 = CARTESIAN_POINT('',(-9.166001291305E-13,-4.487989505131));
#177 = CARTESIAN_POINT('',(2.169143611997,-8.975980666875));
#178 = CARTESIAN_POINT('',(6.507433609025,-12.32819346573));
#179 = CARTESIAN_POINT('',(12.366106147375,-13.40897595825));
#180 = CARTESIAN_POINT('',(18.447756604053,-11.48976861011));
#181 = CARTESIAN_POINT('',(23.090417016559,-6.658852452629));
#182 = CARTESIAN_POINT('',(24.838286020513,-1.500597774215E-10));
#183 = CARTESIAN_POINT('',(23.090417016564,6.658852452904));
#184 = CARTESIAN_POINT('',(18.447756604045,11.489768609902));
#185 = CARTESIAN_POINT('',(12.366106147382,13.408975958386));
#186 = CARTESIAN_POINT('',(6.507433609021,12.328193465669));
#187 = CARTESIAN_POINT('',(2.169143611999,8.975980666898));
#188 = CARTESIAN_POINT('',(-1.268318783332E-12,4.487989505126));
#189 = CARTESIAN_POINT('',(3.552713678801E-15,2.131628216497E-14));
#190 = ( GEOMETRIC_REPRESENTATION_CONTEXT(2) 
PARAMETRIC_REPRESENTATION_CONTEXT() REPRESENTATION_CONTEXT('2D SPACE',''
  ) );
#191 = ORIENTED_EDGE('',*,*,#119,.F.);
#192 = ADVANCED_FACE('',(#193),#95,.F.);
#193 = FACE_BOUND('',#194,.T.);
#194 = EDGE_LOOP('',(#195));
#195 = ORIENTED_EDGE('',*,*,#21,.F.);
#196 = ADVANCED_FACE('',(#197),#168,.T.);
#197 = FACE_BOUND('',#198,.T.);
#198 = EDGE_LOOP('',(#199));
#199 = ORIENTED_EDGE('',*,*,#142,.T.);
#200 = ( GEOMETRIC_REPRESENTATION_CONTEXT(3) 
GLOBAL_UNCERTAINTY_ASSIGNED_CONTEXT((#204)) GLOBAL_UNIT_ASSIGNED_CONTEXT
((#201,#202,#203)) REPRESENTATION_CONTEXT('Context #1',
  '3D Context with UNIT and UNCERTAINTY') );
#201 = ( LENGTH_UNIT() NAMED_UNIT(*) SI_UNIT(.MILLI.,.METRE.) );
#202 = ( NAMED_UNIT(*) PLANE_ANGLE_UNIT() SI_UNIT($,.RADIAN.) );
#203 = ( NAMED_UNIT(*) SI_UNIT($,.STERADIAN.) SOLID_ANGLE_UNIT() );
#204 = UNCERTAINTY_MEASURE_WITH_UNIT(LENGTH_MEASURE(1.E-07),#201,
  'distance_accuracy_value','confusion accuracy');
#205 = PRODUCT_RELATED_PRODUCT_CATEGORY('part',$,(#7));
ENDSEC;
END-ISO-10303-21;
