ISO-10303-21;
HEADER;
FILE_DESCRIPTION(('Open CASCADE Model'),'2;1');
FILE_NAME('Open CASCADE Shape Model','2026-08-09T16:37:55',('Author'),(
    'Open CASCADE'),'Open CASCADE STEP processor 7.7','Open CASCADE 7.7'
  ,'Unknown');
FILE_SCHEMA(('AUTOMOTIVE_DESIGN { 1 0 10303 214 1 1 1 1 }'));
ENDSEC;
DATA;
#1 = APPLICATION_PROTOCOL_DEFINITION('international standard',
  'automotive_design',2000,#2);
#2 = APPLICATION_CONTEXT(
  'core data for automotive mechanical design processes');
#3 = SHAPE_DEFINITION_REPRESENTATION(#4,#10);
#4 = PRODUCT_DEFINITION_SHAPE('','',#5);
#5 = PRODUCT_DEFINITION('design','',#6,#9);
#6 = PRODUCT_DEFINITION_FORMATION('','',#7);
#7 = PRODUCT('Open CASCADE STEP translator 7.7 7',
  'Open CASCADE STEP translator 7.7 7','',(#8));
#8 = PRODUCT_CONTEXT('',#2,'mechanical');
#9 = PRODUCT_DEFINITION_CONTEXT('part definition',#2,'design');
#10 = ADVANCED_BREP_SHAPE_REPRESENTATION('',(#11,#15),#484);
#11 = AXIS2_PLACEMENT_3D('',#12,#13,#14);
#12 = CARTESIAN_POINT('',(0.,0.,0.));
#13 = DIRECTION('',(0.,0.,1.));
#14 = DIRECTION('',(1.,0.,-0.));
#15 = MANIFOLD_SOLID_BREP('',#16);
#16 = CLOSED_SHELL('',(#17,#175,#262,#351,#421,#468,#476));
#17 = ADVANCED_FACE('',(#18),#32,.T.);
#18 = FACE_BOUND('',#19,.T.);
#19 = EDGE_LOOP('',(#20,#69,#108,#136));
#20 = ORIENTED_EDGE('',*,*,#21,.T.);
#21 = EDGE_CURVE('',#22,#24,#26,.T.);
#22 = VERTEX_POINT('',#23);
#23 = CARTESIAN_POINT('',(-20.,-15.,0.));
#24 = VERTEX_POINT('',#25);
#25 = CARTESIAN_POINT('',(20.,-15.,0.));
#26 = SURFACE_CURVE('',#27,(#31,#57),.PCURVE_S1.);
#27 = LINE('',#28,#29);
#28 = CARTESIAN_POINT('',(-20.,-15.,0.));
#29 = VECTOR('',#30,1.);
#30 = DIRECTION('',(1.,0.,0.));
#31 = PCURVE('',#32,#51);
#32 = B_SPLINE_SURFACE_WITH_KNOTS('',8,1,(
    (#33,#34)
    ,(#35,#36)
    ,(#37,#38)
    ,(#39,#40)
    ,(#41,#42)
    ,(#43,#44)
    ,(#45,#46)
    ,(#47,#48)
    ,(#49,#50)),.UNSPECIFIED.,.F.,.F.,.F.,(9,9),(2,2),(0.,40.),(0.,1.),
  .PIECEWISE_BEZIER_KNOTS.);
#33 = CARTESIAN_POINT('',(-20.,-15.,0.));
#34 = CARTESIAN_POINT('',(-7.972366065959,-5.979274549469,20.));
#35 = CARTESIAN_POINT('',(-15.,-15.,0.));
#36 = CARTESIAN_POINT('',(-6.343068295632,-6.944784339293,20.));
#37 = CARTESIAN_POINT('',(-10.,-15.,0.));
#38 = CARTESIAN_POINT('',(-4.413092762809,-7.684786195255,20.));
#39 = CARTESIAN_POINT('',(-5.,-15.,0.));
#40 = CARTESIAN_POINT('',(-2.264375225496,-8.150727755489,
    20.000000000001));
#41 = CARTESIAN_POINT('',(1.110223024625E-16,-15.,0.));
#42 = CARTESIAN_POINT('',(-2.6414696836E-14,-8.309933797892,
    19.999999999999));
#43 = CARTESIAN_POINT('',(5.,-15.,0.));
#44 = CARTESIAN_POINT('',(2.264375225496,-8.150727755489,20.000000000001
    ));
#45 = CARTESIAN_POINT('',(10.,-15.,0.));
#46 = CARTESIAN_POINT('',(4.413092762809,-7.684786195255,19.999999999999
    ));
#47 = CARTESIAN_POINT('',(15.,-15.,0.));
#48 = CARTESIAN_POINT('',(6.343068295632,-6.944784339293,20.));
#49 = CARTESIAN_POINT('',(20.,-15.,0.));
#50 = CARTESIAN_POINT('',(7.972366065959,-5.979274549469,20.));
#51 = DEFINITIONAL_REPRESENTATION('',(#52),#56);
#52 = LINE('',#53,#54);
#53 = CARTESIAN_POINT('',(0.,0.));
#54 = VECTOR('',#55,1.);
#55 = DIRECTION('',(1.,0.));
#56 = ( GEOMETRIC_REPRESENTATION_CONTEXT(2) 
PARAMETRIC_REPRESENTATION_CONTEXT() REPRESENTATION_CONTEXT('2D SPACE',''
  ) );
#57 = PCURVE('',#58,#63);
#58 = PLANE('',#59);
#59 = AXIS2_PLACEMENT_3D('',#60,#61,#62);
#60 = CARTESIAN_POINT('',(-20.,-15.,0.));
#61 = DIRECTION('',(0.,0.,-1.));
#62 = DIRECTION('',(0.8,0.6,0.));
#63 = DEFINITIONAL_REPRESENTATION('',(#64),#68);
#64 = LINE('',#65,#66);
#65 = CARTESIAN_POINT('',(0.,0.));
#66 = VECTOR('',#67,1.);
#67 = DIRECTION('',(0.8,0.6));
#68 = ( GEOMETRIC_REPRESENTATION_CONTEXT(2) 
PARAMETRIC_REPRESENTATION_CONTEXT() REPRESENTATION_CONTEXT('2D SPACE',''
  ) );
#69 = ORIENTED_EDGE('',*,*,#70,.T.);
#70 = EDGE_CURVE('',#24,#71,#73,.T.);
#71 = VERTEX_POINT('',#72);
#72 = CARTESIAN_POINT('',(7.972366065959,-5.979274549469,20.));
#73 = SURFACE_CURVE('',#74,(#77,#84),.PCURVE_S1.);
#74 = B_SPLINE_CURVE_WITH_KNOTS('',1,(#75,#76),.UNSPECIFIED.,.F.,.F.,(2,
    2),(0.,1.),.PIECEWISE_BEZIER_KNOTS.);
#75 = CARTESIAN_POINT('',(20.,-15.,0.));
#76 = CARTESIAN_POINT('',(7.972366065959,-5.979274549469,20.));
#77 = PCURVE('',#32,#78);
#78 = DEFINITIONAL_REPRESENTATION('',(#79),#83);
#79 = LINE('',#80,#81);
#80 = CARTESIAN_POINT('',(40.,0.));
#81 = VECTOR('',#82,1.);
#82 = DIRECTION('',(0.,1.));
#83 = ( GEOMETRIC_REPRESENTATION_CONTEXT(2) 
PARAMETRIC_REPRESENTATION_CONTEXT() REPRESENTATION_CONTEXT('2D SPACE',''
  ) );
#84 = PCURVE('',#85,#102);
#85 = B_SPLINE_SURFACE_WITH_KNOTS('',7,1,(
    (#86,#87)
    ,(#88,#89)
    ,(#90,#91)
    ,(#92,#93)
    ,(#94,#95)
    ,(#96,#97)
    ,(#98,#99)
    ,(#100,#101
  )),.UNSPECIFIED.,.F.,.F.,.F.,(8,8),(2,2),(0.,15.),(0.,1.),
  .PIECEWISE_BEZIER_KNOTS.);
#86 = CARTESIAN_POINT('',(20.,-15.,0.));
#87 = CARTESIAN_POINT('',(7.972366065959,-5.979274549469,20.));
#88 = CARTESIAN_POINT('',(20.,-12.85714285714,0.));
#89 = CARTESIAN_POINT('',(9.053957875602,-5.338331254866,20.));
#90 = CARTESIAN_POINT('',(20.,-10.71428571428,0.));
#91 = CARTESIAN_POINT('',(10.000285850675,-4.595940137144,20.));
#92 = CARTESIAN_POINT('',(20.,-8.571428571429,0.));
#93 = CARTESIAN_POINT('',(10.785659653609,-3.767325962301,
    20.000000000001));
#94 = CARTESIAN_POINT('',(20.,-6.428571428571,0.));
#95 = CARTESIAN_POINT('',(11.389204047898,-2.8713265504,19.999999999999)
  );
#96 = CARTESIAN_POINT('',(20.,-4.285714285714,0.));
#97 = CARTESIAN_POINT('',(11.796401027071,-1.929494790318,20.));
#98 = CARTESIAN_POINT('',(20.,-2.142857142857,0.));
#99 = CARTESIAN_POINT('',(12.,-0.964747412701,20.));
#100 = CARTESIAN_POINT('',(20.,0.,0.));
#101 = CARTESIAN_POINT('',(12.,-1.7763568394E-15,20.));
#102 = DEFINITIONAL_REPRESENTATION('',(#103),#107);
#103 = LINE('',#104,#105);
#104 = CARTESIAN_POINT('',(0.,0.));
#105 = VECTOR('',#106,1.);
#106 = DIRECTION('',(0.,1.));
#107 = ( GEOMETRIC_REPRESENTATION_CONTEXT(2) 
PARAMETRIC_REPRESENTATION_CONTEXT() REPRESENTATION_CONTEXT('2D SPACE',''
  ) );
#108 = ORIENTED_EDGE('',*,*,#109,.F.);
#109 = EDGE_CURVE('',#110,#71,#112,.T.);
#110 = VERTEX_POINT('',#111);
#111 = CARTESIAN_POINT('',(-7.972366065959,-5.979274549469,20.));
#112 = SURFACE_CURVE('',#113,(#118,#124),.PCURVE_S1.);
#113 = ELLIPSE('',#114,12.,8.);
#114 = AXIS2_PLACEMENT_3D('',#115,#116,#117);
#115 = CARTESIAN_POINT('',(0.,0.,20.));
#116 = DIRECTION('',(0.,0.,1.));
#117 = DIRECTION('',(1.,0.,0.));
#118 = PCURVE('',#32,#119);
#119 = DEFINITIONAL_REPRESENTATION('',(#120),#123);
#120 = B_SPLINE_CURVE_WITH_KNOTS('',1,(#121,#122),.UNSPECIFIED.,.F.,.F.,
  (2,2),(3.985746639703,5.439031321066),.PIECEWISE_BEZIER_KNOTS.);
#121 = CARTESIAN_POINT('',(0.,1.));
#122 = CARTESIAN_POINT('',(40.,1.));
#123 = ( GEOMETRIC_REPRESENTATION_CONTEXT(2) 
PARAMETRIC_REPRESENTATION_CONTEXT() REPRESENTATION_CONTEXT('2D SPACE',''
  ) );
#124 = PCURVE('',#125,#130);
#125 = PLANE('',#126);
#126 = AXIS2_PLACEMENT_3D('',#127,#128,#129);
#127 = CARTESIAN_POINT('',(0.,0.,20.));
#128 = DIRECTION('',(0.,0.,1.));
#129 = DIRECTION('',(1.,0.,0.));
#130 = DEFINITIONAL_REPRESENTATION('',(#131),#135);
#131 = ELLIPSE('',#132,12.,8.);
#132 = AXIS2_PLACEMENT_2D('',#133,#134);
#133 = CARTESIAN_POINT('',(0.,0.));
#134 = DIRECTION('',(1.,0.));
#135 = ( GEOMETRIC_REPRESENTATION_CONTEXT(2) 
PARAMETRIC_REPRESENTATION_CONTEXT() REPRESENTATION_CONTEXT('2D SPACE',''
  ) );
#136 = ORIENTED_EDGE('',*,*,#137,.F.);
#137 = EDGE_CURVE('',#22,#110,#138,.T.);
#138 = SURFACE_CURVE('',#139,(#142,#149),.PCURVE_S1.);
#139 = B_SPLINE_CURVE_WITH_KNOTS('',1,(#140,#141),.UNSPECIFIED.,.F.,.F.,
  (2,2),(0.,1.),.PIECEWISE_BEZIER_KNOTS.);
#140 = CARTESIAN_POINT('',(-20.,-15.,0.));
#141 = CARTESIAN_POINT('',(-7.972366065959,-5.979274549469,20.));
#142 = PCURVE('',#32,#143);
#143 = DEFINITIONAL_REPRESENTATION('',(#144),#148);
#144 = LINE('',#145,#146);
#145 = CARTESIAN_POINT('',(0.,0.));
#146 = VECTOR('',#147,1.);
#147 = DIRECTION('',(0.,1.));
#148 = ( GEOMETRIC_REPRESENTATION_CONTEXT(2) 
PARAMETRIC_REPRESENTATION_CONTEXT() REPRESENTATION_CONTEXT('2D SPACE',''
  ) );
#149 = PCURVE('',#150,#169);
#150 = B_SPLINE_SURFACE_WITH_KNOTS('',8,1,(
    (#151,#152)
    ,(#153,#154)
    ,(#155,#156)
    ,(#157,#158)
    ,(#159,#160)
    ,(#161,#162)
    ,(#163,#164)
    ,(#165,#166)
    ,(#167,#168
  )),.UNSPECIFIED.,.F.,.F.,.F.,(9,9),(2,2),(0.,30.),(0.,1.),
  .PIECEWISE_BEZIER_KNOTS.);
#151 = CARTESIAN_POINT('',(-20.,15.,0.));
#152 = CARTESIAN_POINT('',(-7.972366065959,5.979274549469,20.));
#153 = CARTESIAN_POINT('',(-20.,11.25,0.));
#154 = CARTESIAN_POINT('',(-9.865151732834,4.857623783914,20.));
#155 = CARTESIAN_POINT('',(-20.,7.5,0.));
#156 = CARTESIAN_POINT('',(-11.35214638995,3.431628411317,
    19.999999999999));
#157 = CARTESIAN_POINT('',(-20.,3.75,0.));
#158 = CARTESIAN_POINT('',(-12.30489253448,1.777420769579,
    20.000000000002));
#159 = CARTESIAN_POINT('',(-20.,1.110223024625E-16,0.));
#160 = CARTESIAN_POINT('',(-12.63349539956,-2.156277530127E-13,
    19.999999999998));
#161 = CARTESIAN_POINT('',(-20.,-3.75,0.));
#162 = CARTESIAN_POINT('',(-12.30489253448,-1.777420769578,
    20.000000000002));
#163 = CARTESIAN_POINT('',(-20.,-7.5,0.));
#164 = CARTESIAN_POINT('',(-11.35214638995,-3.431628411318,
    19.999999999999));
#165 = CARTESIAN_POINT('',(-20.,-11.25,0.));
#166 = CARTESIAN_POINT('',(-9.865151732834,-4.857623783914,20.));
#167 = CARTESIAN_POINT('',(-20.,-15.,0.));
#168 = CARTESIAN_POINT('',(-7.972366065959,-5.979274549469,20.));
#169 = DEFINITIONAL_REPRESENTATION('',(#170),#174);
#170 = LINE('',#171,#172);
#171 = CARTESIAN_POINT('',(30.,0.));
#172 = VECTOR('',#173,1.);
#173 = DIRECTION('',(0.,1.));
#174 = ( GEOMETRIC_REPRESENTATION_CONTEXT(2) 
PARAMETRIC_REPRESENTATION_CONTEXT() REPRESENTATION_CONTEXT('2D SPACE',''
  ) );
#175 = ADVANCED_FACE('',(#176),#85,.T.);
#176 = FACE_BOUND('',#177,.T.);
#177 = EDGE_LOOP('',(#178,#201,#240,#261));
#178 = ORIENTED_EDGE('',*,*,#179,.T.);
#179 = EDGE_CURVE('',#24,#180,#182,.T.);
#180 = VERTEX_POINT('',#181);
#181 = CARTESIAN_POINT('',(20.,0.,0.));
#182 = SURFACE_CURVE('',#183,(#187,#194),.PCURVE_S1.);
#183 = LINE('',#184,#185);
#184 = CARTESIAN_POINT('',(20.,-15.,0.));
#185 = VECTOR('',#186,1.);
#186 = DIRECTION('',(0.,1.,0.));
#187 = PCURVE('',#85,#188);
#188 = DEFINITIONAL_REPRESENTATION('',(#189),#193);
#189 = LINE('',#190,#191);
#190 = CARTESIAN_POINT('',(0.,0.));
#191 = VECTOR('',#192,1.);
#192 = DIRECTION('',(1.,0.));
#193 = ( GEOMETRIC_REPRESENTATION_CONTEXT(2) 
PARAMETRIC_REPRESENTATION_CONTEXT() REPRESENTATION_CONTEXT('2D SPACE',''
  ) );
#194 = PCURVE('',#58,#195);
#195 = DEFINITIONAL_REPRESENTATION('',(#196),#200);
#196 = LINE('',#197,#198);
#197 = CARTESIAN_POINT('',(32.,24.));
#198 = VECTOR('',#199,1.);
#199 = DIRECTION('',(0.6,-0.8));
#200 = ( GEOMETRIC_REPRESENTATION_CONTEXT(2) 
PARAMETRIC_REPRESENTATION_CONTEXT() REPRESENTATION_CONTEXT('2D SPACE',''
  ) );
#201 = ORIENTED_EDGE('',*,*,#202,.T.);
#202 = EDGE_CURVE('',#180,#203,#205,.T.);
#203 = VERTEX_POINT('',#204);
#204 = CARTESIAN_POINT('',(12.,0.,20.));
#205 = SURFACE_CURVE('',#206,(#209,#216),.PCURVE_S1.);
#206 = B_SPLINE_CURVE_WITH_KNOTS('',1,(#207,#208),.UNSPECIFIED.,.F.,.F.,
  (2,2),(0.,1.),.PIECEWISE_BEZIER_KNOTS.);
#207 = CARTESIAN_POINT('',(20.,0.,0.));
#208 = CARTESIAN_POINT('',(12.,-1.7763568394E-15,20.));
#209 = PCURVE('',#85,#210);
#210 = DEFINITIONAL_REPRESENTATION('',(#211),#215);
#211 = LINE('',#212,#213);
#212 = CARTESIAN_POINT('',(15.,0.));
#213 = VECTOR('',#214,1.);
#214 = DIRECTION('',(0.,1.));
#215 = ( GEOMETRIC_REPRESENTATION_CONTEXT(2) 
PARAMETRIC_REPRESENTATION_CONTEXT() REPRESENTATION_CONTEXT('2D SPACE',''
  ) );
#216 = PCURVE('',#217,#234);
#217 = B_SPLINE_SURFACE_WITH_KNOTS('',7,1,(
    (#218,#219)
    ,(#220,#221)
    ,(#222,#223)
    ,(#224,#225)
    ,(#226,#227)
    ,(#228,#229)
    ,(#230,#231)
    ,(#232,#233
    )),.UNSPECIFIED.,.F.,.F.,.F.,(8,8),(2,2),(15.,30.),(0.,1.),
  .PIECEWISE_BEZIER_KNOTS.);
#218 = CARTESIAN_POINT('',(20.,0.,0.));
#219 = CARTESIAN_POINT('',(12.,0.,20.));
#220 = CARTESIAN_POINT('',(20.,2.142857142857,0.));
#221 = CARTESIAN_POINT('',(12.,0.964747412701,20.));
#222 = CARTESIAN_POINT('',(20.,4.285714285714,0.));
#223 = CARTESIAN_POINT('',(11.796401027071,1.929494790318,20.));
#224 = CARTESIAN_POINT('',(20.,6.428571428571,0.));
#225 = CARTESIAN_POINT('',(11.389204047898,2.8713265504,20.));
#226 = CARTESIAN_POINT('',(20.,8.571428571429,0.));
#227 = CARTESIAN_POINT('',(10.785659653609,3.767325962301,20.));
#228 = CARTESIAN_POINT('',(20.,10.714285714286,0.));
#229 = CARTESIAN_POINT('',(10.000285850675,4.595940137144,20.));
#230 = CARTESIAN_POINT('',(20.,12.857142857143,0.));
#231 = CARTESIAN_POINT('',(9.053957875602,5.338331254866,20.));
#232 = CARTESIAN_POINT('',(20.,15.,0.));
#233 = CARTESIAN_POINT('',(7.972366065959,5.979274549469,20.));
#234 = DEFINITIONAL_REPRESENTATION('',(#235),#239);
#235 = LINE('',#236,#237);
#236 = CARTESIAN_POINT('',(15.,0.));
#237 = VECTOR('',#238,1.);
#238 = DIRECTION('',(0.,1.));
#239 = ( GEOMETRIC_REPRESENTATION_CONTEXT(2) 
PARAMETRIC_REPRESENTATION_CONTEXT() REPRESENTATION_CONTEXT('2D SPACE',''
  ) );
#240 = ORIENTED_EDGE('',*,*,#241,.F.);
#241 = EDGE_CURVE('',#71,#203,#242,.T.);
#242 = SURFACE_CURVE('',#243,(#248,#254),.PCURVE_S1.);
#243 = ELLIPSE('',#244,12.,8.);
#244 = AXIS2_PLACEMENT_3D('',#245,#246,#247);
#245 = CARTESIAN_POINT('',(0.,0.,20.));
#246 = DIRECTION('',(0.,0.,1.));
#247 = DIRECTION('',(1.,0.,0.));
#248 = PCURVE('',#85,#249);
#249 = DEFINITIONAL_REPRESENTATION('',(#250),#253);
#250 = B_SPLINE_CURVE_WITH_KNOTS('',1,(#251,#252),.UNSPECIFIED.,.F.,.F.,
  (2,2),(5.439031321066,6.28318530718),.PIECEWISE_BEZIER_KNOTS.);
#251 = CARTESIAN_POINT('',(0.,1.));
#252 = CARTESIAN_POINT('',(15.,1.));
#253 = ( GEOMETRIC_REPRESENTATION_CONTEXT(2) 
PARAMETRIC_REPRESENTATION_CONTEXT() REPRESENTATION_CONTEXT('2D SPACE',''
  ) );
#254 = PCURVE('',#125,#255);
#255 = DEFINITIONAL_REPRESENTATION('',(#256),#260);
#256 = ELLIPSE('',#257,12.,8.);
#257 = AXIS2_PLACEMENT_2D('',#258,#259);
#258 = CARTESIAN_POINT('',(0.,0.));
#259 = DIRECTION('',(1.,0.));
#260 = ( GEOMETRIC_REPRESENTATION_CONTEXT(2) 
PARAMETRIC_REPRESENTATION_CONTEXT() REPRESENTATION_CONTEXT('2D SPACE',''
  ) );
#261 = ORIENTED_EDGE('',*,*,#70,.F.);
#262 = ADVANCED_FACE('',(#263),#217,.T.);
#263 = FACE_BOUND('',#264,.T.);
#264 = EDGE_LOOP('',(#265,#288,#329,#350));
#265 = ORIENTED_EDGE('',*,*,#266,.T.);
#266 = EDGE_CURVE('',#180,#267,#269,.T.);
#267 = VERTEX_POINT('',#268);
#268 = CARTESIAN_POINT('',(20.,15.,0.));
#269 = SURFACE_CURVE('',#270,(#274,#281),.PCURVE_S1.);
#270 = LINE('',#271,#272);
#271 = CARTESIAN_POINT('',(20.,-15.,0.));
#272 = VECTOR('',#273,1.);
#273 = DIRECTION('',(0.,1.,0.));
#274 = PCURVE('',#217,#275);
#275 = DEFINITIONAL_REPRESENTATION('',(#276),#280);
#276 = LINE('',#277,#278);
#277 = CARTESIAN_POINT('',(0.,0.));
#278 = VECTOR('',#279,1.);
#279 = DIRECTION('',(1.,0.));
#280 = ( GEOMETRIC_REPRESENTATION_CONTEXT(2) 
PARAMETRIC_REPRESENTATION_CONTEXT() REPRESENTATION_CONTEXT('2D SPACE',''
  ) );
#281 = PCURVE('',#58,#282);
#282 = DEFINITIONAL_REPRESENTATION('',(#283),#287);
#283 = LINE('',#284,#285);
#284 = CARTESIAN_POINT('',(32.,24.));
#285 = VECTOR('',#286,1.);
#286 = DIRECTION('',(0.6,-0.8));
#287 = ( GEOMETRIC_REPRESENTATION_CONTEXT(2) 
PARAMETRIC_REPRESENTATION_CONTEXT() REPRESENTATION_CONTEXT('2D SPACE',''
  ) );
#288 = ORIENTED_EDGE('',*,*,#289,.T.);
#289 = EDGE_CURVE('',#267,#290,#292,.T.);
#290 = VERTEX_POINT('',#291);
#291 = CARTESIAN_POINT('',(7.972366065959,5.979274549469,20.));
#292 = SURFACE_CURVE('',#293,(#296,#303),.PCURVE_S1.);
#293 = B_SPLINE_CURVE_WITH_KNOTS('',1,(#294,#295),.UNSPECIFIED.,.F.,.F.,
  (2,2),(0.,1.),.PIECEWISE_BEZIER_KNOTS.);
#294 = CARTESIAN_POINT('',(20.,15.,0.));
#295 = CARTESIAN_POINT('',(7.972366065959,5.979274549469,20.));
#296 = PCURVE('',#217,#297);
#297 = DEFINITIONAL_REPRESENTATION('',(#298),#302);
#298 = LINE('',#299,#300);
#299 = CARTESIAN_POINT('',(30.,0.));
#300 = VECTOR('',#301,1.);
#301 = DIRECTION('',(0.,1.));
#302 = ( GEOMETRIC_REPRESENTATION_CONTEXT(2) 
PARAMETRIC_REPRESENTATION_CONTEXT() REPRESENTATION_CONTEXT('2D SPACE',''
  ) );
#303 = PCURVE('',#304,#323);
#304 = B_SPLINE_SURFACE_WITH_KNOTS('',8,1,(
    (#305,#306)
    ,(#307,#308)
    ,(#309,#310)
    ,(#311,#312)
    ,(#313,#314)
    ,(#315,#316)
    ,(#317,#318)
    ,(#319,#320)
    ,(#321,#322
  )),.UNSPECIFIED.,.F.,.F.,.F.,(9,9),(2,2),(0.,40.),(0.,1.),
  .PIECEWISE_BEZIER_KNOTS.);
#305 = CARTESIAN_POINT('',(20.,15.,0.));
#306 = CARTESIAN_POINT('',(7.972366065959,5.979274549469,20.));
#307 = CARTESIAN_POINT('',(15.,15.,0.));
#308 = CARTESIAN_POINT('',(6.343068295632,6.944784339293,20.));
#309 = CARTESIAN_POINT('',(10.,15.,0.));
#310 = CARTESIAN_POINT('',(4.413092762809,7.684786195255,19.999999999999
    ));
#311 = CARTESIAN_POINT('',(5.,15.,0.));
#312 = CARTESIAN_POINT('',(2.264375225496,8.150727755489,20.000000000001
    ));
#313 = CARTESIAN_POINT('',(-1.110223024625E-16,15.,0.));
#314 = CARTESIAN_POINT('',(-2.867551695361E-13,8.309933797892,
    19.999999999998));
#315 = CARTESIAN_POINT('',(-5.,15.,0.));
#316 = CARTESIAN_POINT('',(-2.264375225495,8.150727755489,
    20.000000000001));
#317 = CARTESIAN_POINT('',(-10.,15.,0.));
#318 = CARTESIAN_POINT('',(-4.413092762809,7.684786195255,
    19.999999999999));
#319 = CARTESIAN_POINT('',(-15.,15.,0.));
#320 = CARTESIAN_POINT('',(-6.343068295632,6.944784339293,20.));
#321 = CARTESIAN_POINT('',(-20.,15.,0.));
#322 = CARTESIAN_POINT('',(-7.972366065959,5.979274549469,20.));
#323 = DEFINITIONAL_REPRESENTATION('',(#324),#328);
#324 = LINE('',#325,#326);
#325 = CARTESIAN_POINT('',(0.,0.));
#326 = VECTOR('',#327,1.);
#327 = DIRECTION('',(0.,1.));
#328 = ( GEOMETRIC_REPRESENTATION_CONTEXT(2) 
PARAMETRIC_REPRESENTATION_CONTEXT() REPRESENTATION_CONTEXT('2D SPACE',''
  ) );
#329 = ORIENTED_EDGE('',*,*,#330,.F.);
#330 = EDGE_CURVE('',#203,#290,#331,.T.);
#331 = SURFACE_CURVE('',#332,(#337,#343),.PCURVE_S1.);
#332 = ELLIPSE('',#333,12.,8.);
#333 = AXIS2_PLACEMENT_3D('',#334,#335,#336);
#334 = CARTESIAN_POINT('',(0.,0.,20.));
#335 = DIRECTION('',(0.,0.,1.));
#336 = DIRECTION('',(1.,0.,0.));
#337 = PCURVE('',#217,#338);
#338 = DEFINITIONAL_REPRESENTATION('',(#339),#342);
#339 = B_SPLINE_CURVE_WITH_KNOTS('',1,(#340,#341),.UNSPECIFIED.,.F.,.F.,
  (2,2),(0.,0.844153986113),.PIECEWISE_BEZIER_KNOTS.);
#340 = CARTESIAN_POINT('',(15.,1.));
#341 = CARTESIAN_POINT('',(30.,1.));
#342 = ( GEOMETRIC_REPRESENTATION_CONTEXT(2) 
PARAMETRIC_REPRESENTATION_CONTEXT() REPRESENTATION_CONTEXT('2D SPACE',''
  ) );
#343 = PCURVE('',#125,#344);
#344 = DEFINITIONAL_REPRESENTATION('',(#345),#349);
#345 = ELLIPSE('',#346,12.,8.);
#346 = AXIS2_PLACEMENT_2D('',#347,#348);
#347 = CARTESIAN_POINT('',(0.,0.));
#348 = DIRECTION('',(1.,0.));
#349 = ( GEOMETRIC_REPRESENTATION_CONTEXT(2) 
PARAMETRIC_REPRESENTATION_CONTEXT() REPRESENTATION_CONTEXT('2D SPACE',''
  ) );
#350 = ORIENTED_EDGE('',*,*,#202,.F.);
#351 = ADVANCED_FACE('',(#352),#304,.T.);
#352 = FACE_BOUND('',#353,.T.);
#353 = EDGE_LOOP('',(#354,#377,#399,#420));
#354 = ORIENTED_EDGE('',*,*,#355,.T.);
#355 = EDGE_CURVE('',#267,#356,#358,.T.);
#356 = VERTEX_POINT('',#357);
#357 = CARTESIAN_POINT('',(-20.,15.,0.));
#358 = SURFACE_CURVE('',#359,(#363,#370),.PCURVE_S1.);
#359 = LINE('',#360,#361);
#360 = CARTESIAN_POINT('',(20.,15.,0.));
#361 = VECTOR('',#362,1.);
#362 = DIRECTION('',(-1.,0.,0.));
#363 = PCURVE('',#304,#364);
#364 = DEFINITIONAL_REPRESENTATION('',(#365),#369);
#365 = LINE('',#366,#367);
#366 = CARTESIAN_POINT('',(0.,0.));
#367 = VECTOR('',#368,1.);
#368 = DIRECTION('',(1.,0.));
#369 = ( GEOMETRIC_REPRESENTATION_CONTEXT(2) 
PARAMETRIC_REPRESENTATION_CONTEXT() REPRESENTATION_CONTEXT('2D SPACE',''
  ) );
#370 = PCURVE('',#58,#371);
#371 = DEFINITIONAL_REPRESENTATION('',(#372),#376);
#372 = LINE('',#373,#374);
#373 = CARTESIAN_POINT('',(50.,-8.881784197001E-16));
#374 = VECTOR('',#375,1.);
#375 = DIRECTION('',(-0.8,-0.6));
#376 = ( GEOMETRIC_REPRESENTATION_CONTEXT(2) 
PARAMETRIC_REPRESENTATION_CONTEXT() REPRESENTATION_CONTEXT('2D SPACE',''
  ) );
#377 = ORIENTED_EDGE('',*,*,#378,.T.);
#378 = EDGE_CURVE('',#356,#379,#381,.T.);
#379 = VERTEX_POINT('',#380);
#380 = CARTESIAN_POINT('',(-7.972366065959,5.979274549469,20.));
#381 = SURFACE_CURVE('',#382,(#385,#392),.PCURVE_S1.);
#382 = B_SPLINE_CURVE_WITH_KNOTS('',1,(#383,#384),.UNSPECIFIED.,.F.,.F.,
  (2,2),(0.,1.),.PIECEWISE_BEZIER_KNOTS.);
#383 = CARTESIAN_POINT('',(-20.,15.,0.));
#384 = CARTESIAN_POINT('',(-7.972366065959,5.979274549469,20.));
#385 = PCURVE('',#304,#386);
#386 = DEFINITIONAL_REPRESENTATION('',(#387),#391);
#387 = LINE('',#388,#389);
#388 = CARTESIAN_POINT('',(40.,0.));
#389 = VECTOR('',#390,1.);
#390 = DIRECTION('',(0.,1.));
#391 = ( GEOMETRIC_REPRESENTATION_CONTEXT(2) 
PARAMETRIC_REPRESENTATION_CONTEXT() REPRESENTATION_CONTEXT('2D SPACE',''
  ) );
#392 = PCURVE('',#150,#393);
#393 = DEFINITIONAL_REPRESENTATION('',(#394),#398);
#394 = LINE('',#395,#396);
#395 = CARTESIAN_POINT('',(0.,0.));
#396 = VECTOR('',#397,1.);
#397 = DIRECTION('',(0.,1.));
#398 = ( GEOMETRIC_REPRESENTATION_CONTEXT(2) 
PARAMETRIC_REPRESENTATION_CONTEXT() REPRESENTATION_CONTEXT('2D SPACE',''
  ) );
#399 = ORIENTED_EDGE('',*,*,#400,.F.);
#400 = EDGE_CURVE('',#290,#379,#401,.T.);
#401 = SURFACE_CURVE('',#402,(#407,#413),.PCURVE_S1.);
#402 = ELLIPSE('',#403,12.,8.);
#403 = AXIS2_PLACEMENT_3D('',#404,#405,#406);
#404 = CARTESIAN_POINT('',(0.,0.,20.));
#405 = DIRECTION('',(0.,0.,1.));
#406 = DIRECTION('',(1.,0.,0.));
#407 = PCURVE('',#304,#408);
#408 = DEFINITIONAL_REPRESENTATION('',(#409),#412);
#409 = B_SPLINE_CURVE_WITH_KNOTS('',1,(#410,#411),.UNSPECIFIED.,.F.,.F.,
  (2,2),(0.844153986113,2.297438667477),.PIECEWISE_BEZIER_KNOTS.);
#410 = CARTESIAN_POINT('',(0.,1.));
#411 = CARTESIAN_POINT('',(40.,1.));
#412 = ( GEOMETRIC_REPRESENTATION_CONTEXT(2) 
PARAMETRIC_REPRESENTATION_CONTEXT() REPRESENTATION_CONTEXT('2D SPACE',''
  ) );
#413 = PCURVE('',#125,#414);
#414 = DEFINITIONAL_REPRESENTATION('',(#415),#419);
#415 = ELLIPSE('',#416,12.,8.);
#416 = AXIS2_PLACEMENT_2D('',#417,#418);
#417 = CARTESIAN_POINT('',(0.,0.));
#418 = DIRECTION('',(1.,0.));
#419 = ( GEOMETRIC_REPRESENTATION_CONTEXT(2) 
PARAMETRIC_REPRESENTATION_CONTEXT() REPRESENTATION_CONTEXT('2D SPACE',''
  ) );
#420 = ORIENTED_EDGE('',*,*,#289,.F.);
#421 = ADVANCED_FACE('',(#422),#150,.T.);
#422 = FACE_BOUND('',#423,.T.);
#423 = EDGE_LOOP('',(#424,#445,#446,#467));
#424 = ORIENTED_EDGE('',*,*,#425,.T.);
#425 = EDGE_CURVE('',#356,#22,#426,.T.);
#426 = SURFACE_CURVE('',#427,(#431,#438),.PCURVE_S1.);
#427 = LINE('',#428,#429);
#428 = CARTESIAN_POINT('',(-20.,15.,0.));
#429 = VECTOR('',#430,1.);
#430 = DIRECTION('',(0.,-1.,0.));
#431 = PCURVE('',#150,#432);
#432 = DEFINITIONAL_REPRESENTATION('',(#433),#437);
#433 = LINE('',#434,#435);
#434 = CARTESIAN_POINT('',(0.,0.));
#435 = VECTOR('',#436,1.);
#436 = DIRECTION('',(1.,0.));
#437 = ( GEOMETRIC_REPRESENTATION_CONTEXT(2) 
PARAMETRIC_REPRESENTATION_CONTEXT() REPRESENTATION_CONTEXT('2D SPACE',''
  ) );
#438 = PCURVE('',#58,#439);
#439 = DEFINITIONAL_REPRESENTATION('',(#440),#444);
#440 = LINE('',#441,#442);
#441 = CARTESIAN_POINT('',(18.,-24.));
#442 = VECTOR('',#443,1.);
#443 = DIRECTION('',(-0.6,0.8));
#444 = ( GEOMETRIC_REPRESENTATION_CONTEXT(2) 
PARAMETRIC_REPRESENTATION_CONTEXT() REPRESENTATION_CONTEXT('2D SPACE',''
  ) );
#445 = ORIENTED_EDGE('',*,*,#137,.T.);
#446 = ORIENTED_EDGE('',*,*,#447,.F.);
#447 = EDGE_CURVE('',#379,#110,#448,.T.);
#448 = SURFACE_CURVE('',#449,(#454,#460),.PCURVE_S1.);
#449 = ELLIPSE('',#450,12.,8.);
#450 = AXIS2_PLACEMENT_3D('',#451,#452,#453);
#451 = CARTESIAN_POINT('',(0.,0.,20.));
#452 = DIRECTION('',(0.,0.,1.));
#453 = DIRECTION('',(1.,0.,0.));
#454 = PCURVE('',#150,#455);
#455 = DEFINITIONAL_REPRESENTATION('',(#456),#459);
#456 = B_SPLINE_CURVE_WITH_KNOTS('',1,(#457,#458),.UNSPECIFIED.,.F.,.F.,
  (2,2),(2.297438667477,3.985746639703),.PIECEWISE_BEZIER_KNOTS.);
#457 = CARTESIAN_POINT('',(0.,1.));
#458 = CARTESIAN_POINT('',(30.,1.));
#459 = ( GEOMETRIC_REPRESENTATION_CONTEXT(2) 
PARAMETRIC_REPRESENTATION_CONTEXT() REPRESENTATION_CONTEXT('2D SPACE',''
  ) );
#460 = PCURVE('',#125,#461);
#461 = DEFINITIONAL_REPRESENTATION('',(#462),#466);
#462 = ELLIPSE('',#463,12.,8.);
#463 = AXIS2_PLACEMENT_2D('',#464,#465);
#464 = CARTESIAN_POINT('',(0.,0.));
#465 = DIRECTION('',(1.,0.));
#466 = ( GEOMETRIC_REPRESENTATION_CONTEXT(2) 
PARAMETRIC_REPRESENTATION_CONTEXT() REPRESENTATION_CONTEXT('2D SPACE',''
  ) );
#467 = ORIENTED_EDGE('',*,*,#378,.F.);
#468 = ADVANCED_FACE('',(#469),#58,.T.);
#469 = FACE_BOUND('',#470,.F.);
#470 = EDGE_LOOP('',(#471,#472,#473,#474,#475));
#471 = ORIENTED_EDGE('',*,*,#21,.T.);
#472 = ORIENTED_EDGE('',*,*,#179,.T.);
#473 = ORIENTED_EDGE('',*,*,#266,.T.);
#474 = ORIENTED_EDGE('',*,*,#355,.T.);
#475 = ORIENTED_EDGE('',*,*,#425,.T.);
#476 = ADVANCED_FACE('',(#477),#125,.T.);
#477 = FACE_BOUND('',#478,.T.);
#478 = EDGE_LOOP('',(#479,#480,#481,#482,#483));
#479 = ORIENTED_EDGE('',*,*,#109,.T.);
#480 = ORIENTED_EDGE('',*,*,#241,.T.);
#481 = ORIENTED_EDGE('',*,*,#330,.T.);
#482 = ORIENTED_EDGE('',*,*,#400,.T.);
#483 = ORIENTED_EDGE('',*,*,#447,.T.);
#484 = ( GEOMETRIC_REPRESENTATION_CONTEXT(3) 
GLOBAL_UNCERTAINTY_ASSIGNED_CONTEXT((#488)) GLOBAL_UNIT_ASSIGNED_CONTEXT
((#485,#486,#487)) REPRESENTATION_CONTEXT('Context #1',
  '3D Context with UNIT and UNCERTAINTY') );
#485 = ( LENGTH_UNIT() NAMED_UNIT(*) SI_UNIT(.MILLI.,.METRE.) );
#486 = ( NAMED_UNIT(*) PLANE_ANGLE_UNIT() SI_UNIT($,.RADIAN.) );
#487 = ( NAMED_UNIT(*) SI_UNIT($,.STERADIAN.) SOLID_ANGLE_UNIT() );
#488 = UNCERTAINTY_MEASURE_WITH_UNIT(LENGTH_MEASURE(1.E-07),#485,
  'distance_accuracy_value','confusion accuracy');
#489 = PRODUCT_RELATED_PRODUCT_CATEGORY('part',$,(#7));
ENDSEC;
END-ISO-10303-21;
