ISO-10303-21;
HEADER;
/* Generated by software containing ST-Developer
 * from STEP Tools, Inc. (www.steptools.com) 
 */
/* OPTION: using custom schema-name function */

FILE_DESCRIPTION(
/* description */ (''),
/* implementation_level */ '2;1');

FILE_NAME(
/* name */ 'New Designe Dhukkan.stp',
/* time_stamp */ '2026-06-15T17:52:58+05:00',
/* author */ (''),
/* organization */ (''),
/* preprocessor_version */ 'ST-DEVELOPER v16',
/* originating_system */ 'SIEMENS PLM Software NX 10.0',
/* authorisation */ '');

FILE_SCHEMA (('AUTOMOTIVE_DESIGN { 1 0 10303 214 3 1 1 1 }'));
ENDSEC;

DATA;
#10=CONSTRUCTIVE_GEOMETRY_REPRESENTATION_RELATIONSHIP(
'supplemental geometry','',#32,#11);
#11=CONSTRUCTIVE_GEOMETRY_REPRESENTATION('supplemental geometry',(#316),
#578);
#12=PROPERTY_DEFINITION_REPRESENTATION(#16,#14);
#13=PROPERTY_DEFINITION_REPRESENTATION(#17,#15);
#14=REPRESENTATION('',(#18),#578);
#15=REPRESENTATION('',(#19),#578);
#16=PROPERTY_DEFINITION('pmi validation property','',#23);
#17=PROPERTY_DEFINITION('pmi validation property','',#23);
#18=VALUE_REPRESENTATION_ITEM('number of annotations',COUNT_MEASURE(0.));
#19=VALUE_REPRESENTATION_ITEM('number of views',COUNT_MEASURE(0.));
#20=SHAPE_REPRESENTATION_RELATIONSHIP('None',
'relationship between Dils2EF06674o8lo-None and Dils2EF06674o8lo-None',
#32,#21);
#21=ADVANCED_BREP_SHAPE_REPRESENTATION('Dils2EF06674o8lo-None',(#38),#578);
#22=SHAPE_DEFINITION_REPRESENTATION(#23,#32);
#23=PRODUCT_DEFINITION_SHAPE('','',#24);
#24=PRODUCT_DEFINITION(' ','',#26,#25);
#25=PRODUCT_DEFINITION_CONTEXT('part definition',#31,'design');
#26=PRODUCT_DEFINITION_FORMATION_WITH_SPECIFIED_SOURCE(' ',' ',#28,
 .NOT_KNOWN.);
#27=PRODUCT_RELATED_PRODUCT_CATEGORY('part','',(#28));
#28=PRODUCT('Dils2EF06674o8lo','Dils2EF06674o8lo',' ',(#29));
#29=PRODUCT_CONTEXT(' ',#31,'mechanical');
#30=APPLICATION_PROTOCOL_DEFINITION('international standard',
'automotive_design',2010,#31);
#31=APPLICATION_CONTEXT(
'core data for automotive mechanical design processes');
#32=SHAPE_REPRESENTATION('Dils2EF06674o8lo-None',(#315),#578);
#33=SURFACE_STYLE_USAGE(.BOTH.,#34);
#34=SURFACE_SIDE_STYLE('',(#35));
#35=SURFACE_STYLE_FILL_AREA(#36);
#36=FILL_AREA_STYLE('',(#37));
#37=FILL_AREA_STYLE_COLOUR('',#313);
#38=MANIFOLD_SOLID_BREP('',#39);
#39=CLOSED_SHELL('',(#56,#57,#58,#59,#60,#61,#62,#63,#64,#65,#66,#67,#68,
#69,#70,#71,#72,#73,#74,#75,#76,#77,#78,#79,#80));
#40=CONICAL_SURFACE('',#346,22.5274773454741,45.);
#41=CONICAL_SURFACE('',#350,18.7775,1.);
#42=CONICAL_SURFACE('',#354,19.9955,1.);
#43=CONICAL_SURFACE('',#361,24.8675,1.5);
#44=(
BOUNDED_SURFACE()
B_SPLINE_SURFACE(3,3,((#499,#500,#501,#502,#503,#504,#505),(#506,#507,#508,
#509,#510,#511,#512),(#513,#514,#515,#516,#517,#518,#519),(#520,#521,#522,
#523,#524,#525,#526)),.UNSPECIFIED.,.F.,.T.,.F.)
B_SPLINE_SURFACE_WITH_KNOTS((4,4),(1,3,3,3,1),(0.,1.),(-0.5,0.,0.5,1.,1.5),
 .UNSPECIFIED.)
GEOMETRIC_REPRESENTATION_ITEM()
RATIONAL_B_SPLINE_SURFACE(((1.,0.333333333333333,0.333333333333333,1.,0.333333333333333,
0.333333333333333,1.),(0.996198365280886,0.332066121760295,0.332066121760295,
0.996198365280886,0.332066121760295,0.332066121760295,0.996198365280886),
(0.996198365280886,0.332066121760295,0.332066121760295,0.996198365280886,
0.332066121760295,0.332066121760295,0.996198365280886),(1.,0.333333333333333,
0.333333333333333,1.,0.333333333333333,0.333333333333333,1.)))
REPRESENTATION_ITEM('')
SURFACE()
);
#45=(
BOUNDED_SURFACE()
B_SPLINE_SURFACE(3,1,((#555,#556),(#557,#558),(#559,#560),(#561,#562),(#563,
#564),(#565,#566),(#567,#568)),.UNSPECIFIED.,.T.,.F.,.F.)
B_SPLINE_SURFACE_WITH_KNOTS((1,3,3,3,1),(2,2),(-0.5,0.,0.5,1.,1.5),(0.,
1.),.UNSPECIFIED.)
GEOMETRIC_REPRESENTATION_ITEM()
RATIONAL_B_SPLINE_SURFACE(((1.,1.),(0.333333333333334,0.333333333333334),
(0.333333333333334,0.333333333333334),(1.,1.),(0.333333333333334,0.333333333333334),
(0.333333333333334,0.333333333333334),(1.,1.)))
REPRESENTATION_ITEM('')
SURFACE()
);
#46=FACE_OUTER_BOUND('',#154,.T.);
#47=FACE_OUTER_BOUND('',#167,.T.);
#48=PLANE('',#324);
#49=PLANE('',#331);
#50=PLANE('',#337);
#51=PLANE('',#344);
#52=PLANE('',#348);
#53=PLANE('',#352);
#54=PLANE('',#356);
#55=PLANE('',#359);
#56=ADVANCED_FACE('',(#92,#93),#81,.T.);
#57=ADVANCED_FACE('',(#94,#95),#82,.T.);
#58=ADVANCED_FACE('',(#96,#97),#48,.T.);
#59=ADVANCED_FACE('',(#98,#99),#83,.T.);
#60=ADVANCED_FACE('',(#100,#101),#84,.T.);
#61=ADVANCED_FACE('',(#102,#103),#49,.T.);
#62=ADVANCED_FACE('',(#104,#105),#85,.T.);
#63=ADVANCED_FACE('',(#106,#107),#86,.T.);
#64=ADVANCED_FACE('',(#46),#50,.T.);
#65=ADVANCED_FACE('',(#108,#109),#44,.T.);
#66=ADVANCED_FACE('',(#110,#111),#87,.F.);
#67=ADVANCED_FACE('',(#112,#113),#88,.F.);
#68=ADVANCED_FACE('',(#114,#115),#89,.F.);
#69=ADVANCED_FACE('',(#116,#117),#51,.T.);
#70=ADVANCED_FACE('',(#118,#119),#40,.F.);
#71=ADVANCED_FACE('',(#47),#52,.T.);
#72=ADVANCED_FACE('',(#120,#121),#41,.F.);
#73=ADVANCED_FACE('',(#122,#123),#53,.F.);
#74=ADVANCED_FACE('',(#124,#125),#42,.T.);
#75=ADVANCED_FACE('',(#126,#127),#54,.T.);
#76=ADVANCED_FACE('',(#128,#129),#45,.F.);
#77=ADVANCED_FACE('',(#130,#131),#55,.F.);
#78=ADVANCED_FACE('',(#132,#133),#43,.T.);
#79=ADVANCED_FACE('',(#134,#135),#90,.T.);
#80=ADVANCED_FACE('',(#136,#137),#91,.T.);
#81=TOROIDAL_SURFACE('',#319,15.2041160344692,8.17503083151397);
#82=TOROIDAL_SURFACE('',#321,17.2637560983329,3.1465);
#83=TOROIDAL_SURFACE('',#326,14.2972767034946,4.9);
#84=TOROIDAL_SURFACE('',#328,14.2302354931711,4.9);
#85=TOROIDAL_SURFACE('',#333,8.23023549317107,4.9);
#86=TOROIDAL_SURFACE('',#335,8.29727670349473,4.9);
#87=TOROIDAL_SURFACE('',#339,5.2637560983329,5.);
#88=TOROIDAL_SURFACE('',#340,11.2637560983329,5.);
#89=TOROIDAL_SURFACE('',#341,20.7546327254277,10.);
#90=TOROIDAL_SURFACE('',#362,23.0763423761197,1.);
#91=TOROIDAL_SURFACE('',#363,22.941690907847,1.);
#92=FACE_BOUND('',#138,.T.);
#93=FACE_BOUND('',#139,.T.);
#94=FACE_BOUND('',#140,.T.);
#95=FACE_BOUND('',#141,.T.);
#96=FACE_BOUND('',#142,.T.);
#97=FACE_BOUND('',#143,.T.);
#98=FACE_BOUND('',#144,.T.);
#99=FACE_BOUND('',#145,.T.);
#100=FACE_BOUND('',#146,.T.);
#101=FACE_BOUND('',#147,.T.);
#102=FACE_BOUND('',#148,.T.);
#103=FACE_BOUND('',#149,.T.);
#104=FACE_BOUND('',#150,.T.);
#105=FACE_BOUND('',#151,.T.);
#106=FACE_BOUND('',#152,.T.);
#107=FACE_BOUND('',#153,.T.);
#108=FACE_BOUND('',#155,.T.);
#109=FACE_BOUND('',#156,.T.);
#110=FACE_BOUND('',#157,.T.);
#111=FACE_BOUND('',#158,.T.);
#112=FACE_BOUND('',#159,.T.);
#113=FACE_BOUND('',#160,.T.);
#114=FACE_BOUND('',#161,.T.);
#115=FACE_BOUND('',#162,.T.);
#116=FACE_BOUND('',#163,.T.);
#117=FACE_BOUND('',#164,.T.);
#118=FACE_BOUND('',#165,.T.);
#119=FACE_BOUND('',#166,.T.);
#120=FACE_BOUND('',#168,.T.);
#121=FACE_BOUND('',#169,.T.);
#122=FACE_BOUND('',#170,.T.);
#123=FACE_BOUND('',#171,.T.);
#124=FACE_BOUND('',#172,.T.);
#125=FACE_BOUND('',#173,.T.);
#126=FACE_BOUND('',#174,.T.);
#127=FACE_BOUND('',#175,.T.);
#128=FACE_BOUND('',#176,.T.);
#129=FACE_BOUND('',#177,.T.);
#130=FACE_BOUND('',#178,.T.);
#131=FACE_BOUND('',#179,.T.);
#132=FACE_BOUND('',#180,.T.);
#133=FACE_BOUND('',#181,.T.);
#134=FACE_BOUND('',#182,.T.);
#135=FACE_BOUND('',#183,.T.);
#136=FACE_BOUND('',#184,.T.);
#137=FACE_BOUND('',#185,.T.);
#138=EDGE_LOOP('',(#186));
#139=EDGE_LOOP('',(#187));
#140=EDGE_LOOP('',(#188));
#141=EDGE_LOOP('',(#189));
#142=EDGE_LOOP('',(#190));
#143=EDGE_LOOP('',(#191));
#144=EDGE_LOOP('',(#192));
#145=EDGE_LOOP('',(#193));
#146=EDGE_LOOP('',(#194));
#147=EDGE_LOOP('',(#195));
#148=EDGE_LOOP('',(#196));
#149=EDGE_LOOP('',(#197));
#150=EDGE_LOOP('',(#198));
#151=EDGE_LOOP('',(#199));
#152=EDGE_LOOP('',(#200));
#153=EDGE_LOOP('',(#201));
#154=EDGE_LOOP('',(#202));
#155=EDGE_LOOP('',(#203));
#156=EDGE_LOOP('',(#204));
#157=EDGE_LOOP('',(#205));
#158=EDGE_LOOP('',(#206));
#159=EDGE_LOOP('',(#207));
#160=EDGE_LOOP('',(#208));
#161=EDGE_LOOP('',(#209));
#162=EDGE_LOOP('',(#210));
#163=EDGE_LOOP('',(#211));
#164=EDGE_LOOP('',(#212));
#165=EDGE_LOOP('',(#213));
#166=EDGE_LOOP('',(#214));
#167=EDGE_LOOP('',(#215));
#168=EDGE_LOOP('',(#216));
#169=EDGE_LOOP('',(#217));
#170=EDGE_LOOP('',(#218));
#171=EDGE_LOOP('',(#219));
#172=EDGE_LOOP('',(#220));
#173=EDGE_LOOP('',(#221));
#174=EDGE_LOOP('',(#222));
#175=EDGE_LOOP('',(#223));
#176=EDGE_LOOP('',(#224));
#177=EDGE_LOOP('',(#225));
#178=EDGE_LOOP('',(#226));
#179=EDGE_LOOP('',(#227));
#180=EDGE_LOOP('',(#228));
#181=EDGE_LOOP('',(#229));
#182=EDGE_LOOP('',(#230));
#183=EDGE_LOOP('',(#231));
#184=EDGE_LOOP('',(#232));
#185=EDGE_LOOP('',(#233));
#186=ORIENTED_EDGE('',*,*,#258,.T.);
#187=ORIENTED_EDGE('',*,*,#259,.T.);
#188=ORIENTED_EDGE('',*,*,#260,.T.);
#189=ORIENTED_EDGE('',*,*,#258,.F.);
#190=ORIENTED_EDGE('',*,*,#261,.T.);
#191=ORIENTED_EDGE('',*,*,#262,.T.);
#192=ORIENTED_EDGE('',*,*,#263,.T.);
#193=ORIENTED_EDGE('',*,*,#261,.F.);
#194=ORIENTED_EDGE('',*,*,#264,.T.);
#195=ORIENTED_EDGE('',*,*,#262,.F.);
#196=ORIENTED_EDGE('',*,*,#265,.T.);
#197=ORIENTED_EDGE('',*,*,#266,.T.);
#198=ORIENTED_EDGE('',*,*,#267,.T.);
#199=ORIENTED_EDGE('',*,*,#265,.F.);
#200=ORIENTED_EDGE('',*,*,#268,.T.);
#201=ORIENTED_EDGE('',*,*,#266,.F.);
#202=ORIENTED_EDGE('',*,*,#269,.T.);
#203=ORIENTED_EDGE('',*,*,#270,.T.);
#204=ORIENTED_EDGE('',*,*,#269,.F.);
#205=ORIENTED_EDGE('',*,*,#267,.F.);
#206=ORIENTED_EDGE('',*,*,#270,.F.);
#207=ORIENTED_EDGE('',*,*,#264,.F.);
#208=ORIENTED_EDGE('',*,*,#268,.F.);
#209=ORIENTED_EDGE('',*,*,#260,.F.);
#210=ORIENTED_EDGE('',*,*,#263,.F.);
#211=ORIENTED_EDGE('',*,*,#271,.T.);
#212=ORIENTED_EDGE('',*,*,#272,.T.);
#213=ORIENTED_EDGE('',*,*,#273,.T.);
#214=ORIENTED_EDGE('',*,*,#259,.F.);
#215=ORIENTED_EDGE('',*,*,#274,.F.);
#216=ORIENTED_EDGE('',*,*,#275,.F.);
#217=ORIENTED_EDGE('',*,*,#274,.T.);
#218=ORIENTED_EDGE('',*,*,#276,.F.);
#219=ORIENTED_EDGE('',*,*,#275,.T.);
#220=ORIENTED_EDGE('',*,*,#277,.F.);
#221=ORIENTED_EDGE('',*,*,#276,.T.);
#222=ORIENTED_EDGE('',*,*,#278,.T.);
#223=ORIENTED_EDGE('',*,*,#277,.T.);
#224=ORIENTED_EDGE('',*,*,#278,.F.);
#225=ORIENTED_EDGE('',*,*,#279,.F.);
#226=ORIENTED_EDGE('',*,*,#279,.T.);
#227=ORIENTED_EDGE('',*,*,#280,.F.);
#228=ORIENTED_EDGE('',*,*,#281,.T.);
#229=ORIENTED_EDGE('',*,*,#280,.T.);
#230=ORIENTED_EDGE('',*,*,#271,.F.);
#231=ORIENTED_EDGE('',*,*,#281,.F.);
#232=ORIENTED_EDGE('',*,*,#273,.F.);
#233=ORIENTED_EDGE('',*,*,#272,.F.);
#234=VERTEX_POINT('',#465);
#235=VERTEX_POINT('',#467);
#236=VERTEX_POINT('',#470);
#237=VERTEX_POINT('',#473);
#238=VERTEX_POINT('',#475);
#239=VERTEX_POINT('',#478);
#240=VERTEX_POINT('',#481);
#241=VERTEX_POINT('',#484);
#242=VERTEX_POINT('',#486);
#243=VERTEX_POINT('',#489);
#244=VERTEX_POINT('',#492);
#245=VERTEX_POINT('',#495);
#246=VERTEX_POINT('',#498);
#247=VERTEX_POINT('',#531);
#248=VERTEX_POINT('',#533);
#249=VERTEX_POINT('',#536);
#250=VERTEX_POINT('',#539);
#251=VERTEX_POINT('',#542);
#252=VERTEX_POINT('',#545);
#253=VERTEX_POINT('',#548);
#254=VERTEX_POINT('',#551);
#255=VERTEX_POINT('',#554);
#256=VERTEX_POINT('',#570);
#257=VERTEX_POINT('',#573);
#258=EDGE_CURVE('',#234,#234,#282,.T.);
#259=EDGE_CURVE('',#235,#235,#283,.T.);
#260=EDGE_CURVE('',#236,#236,#284,.T.);
#261=EDGE_CURVE('',#237,#237,#285,.T.);
#262=EDGE_CURVE('',#238,#238,#286,.T.);
#263=EDGE_CURVE('',#239,#239,#287,.T.);
#264=EDGE_CURVE('',#240,#240,#288,.T.);
#265=EDGE_CURVE('',#241,#241,#289,.T.);
#266=EDGE_CURVE('',#242,#242,#290,.T.);
#267=EDGE_CURVE('',#243,#243,#291,.T.);
#268=EDGE_CURVE('',#244,#244,#292,.T.);
#269=EDGE_CURVE('',#245,#245,#293,.T.);
#270=EDGE_CURVE('',#246,#246,#294,.T.);
#271=EDGE_CURVE('',#247,#247,#295,.T.);
#272=EDGE_CURVE('',#248,#248,#296,.T.);
#273=EDGE_CURVE('',#249,#249,#297,.T.);
#274=EDGE_CURVE('',#250,#250,#298,.T.);
#275=EDGE_CURVE('',#251,#251,#299,.T.);
#276=EDGE_CURVE('',#252,#252,#300,.T.);
#277=EDGE_CURVE('',#253,#253,#301,.T.);
#278=EDGE_CURVE('',#254,#254,#302,.T.);
#279=EDGE_CURVE('',#255,#255,#303,.T.);
#280=EDGE_CURVE('',#256,#256,#304,.T.);
#281=EDGE_CURVE('',#257,#257,#305,.T.);
#282=CIRCLE('',#317,18.5525336117039);
#283=CIRCLE('',#318,20.0902490636549);
#284=CIRCLE('',#320,18.0992669420672);
#285=CIRCLE('',#322,14.2972767034946);
#286=CIRCLE('',#323,14.2302354931711);
#287=CIRCLE('',#325,16.4208367375532);
#288=CIRCLE('',#327,12.7619780149173);
#289=CIRCLE('',#329,8.23023549317107);
#290=CIRCLE('',#330,8.29727670349473);
#291=CIRCLE('',#332,6.76197801491784);
#292=CIRCLE('',#334,9.76553418174853);
#293=CIRCLE('',#336,1.02242516952228);
#294=CIRCLE('',#338,4.20342336613027);
#295=CIRCLE('',#342,23.0763423761197);
#296=CIRCLE('',#343,22.941690907847);
#297=CIRCLE('',#345,22.2345841266605);
#298=CIRCLE('',#347,18.6041579394135);
#299=CIRCLE('',#349,18.7775);
#300=CIRCLE('',#351,19.9955);
#301=CIRCLE('',#353,20.0486506727064);
#302=CIRCLE('',#355,22.7863251801855);
#303=CIRCLE('',#357,23.3444780984326);
#304=CIRCLE('',#358,24.8675);
#305=CIRCLE('',#360,24.0759997010952);
#306=PRESENTATION_LAYER_ASSIGNMENT('1','Layer 1',(#316,#38));
#307=STYLED_ITEM('',(#309),#316);
#308=STYLED_ITEM('',(#310),#38);
#309=PRESENTATION_STYLE_ASSIGNMENT((#311));
#310=PRESENTATION_STYLE_ASSIGNMENT((#33));
#311=CURVE_STYLE('',#314,POSITIVE_LENGTH_MEASURE(0.13),#312);
#312=COLOUR_RGB('Medium Maroon',0.6,0.4,0.4);
#313=COLOUR_RGB('Strong Lavender',0.592156862745098,0.584298466468299,0.772533760585946);
#314=DRAUGHTING_PRE_DEFINED_CURVE_FONT('continuous');
#315=AXIS2_PLACEMENT_3D('',#462,#364,#365);
#316=AXIS2_PLACEMENT_3D('',#463,#366,#367);
#317=AXIS2_PLACEMENT_3D('',#464,#368,#369);
#318=AXIS2_PLACEMENT_3D('',#466,#370,#371);
#319=AXIS2_PLACEMENT_3D('',#468,#372,#373);
#320=AXIS2_PLACEMENT_3D('',#469,#374,#375);
#321=AXIS2_PLACEMENT_3D('',#471,#376,#377);
#322=AXIS2_PLACEMENT_3D('',#472,#378,#379);
#323=AXIS2_PLACEMENT_3D('',#474,#380,#381);
#324=AXIS2_PLACEMENT_3D('',#476,#382,#383);
#325=AXIS2_PLACEMENT_3D('',#477,#384,#385);
#326=AXIS2_PLACEMENT_3D('',#479,#386,#387);
#327=AXIS2_PLACEMENT_3D('',#480,#388,#389);
#328=AXIS2_PLACEMENT_3D('',#482,#390,#391);
#329=AXIS2_PLACEMENT_3D('',#483,#392,#393);
#330=AXIS2_PLACEMENT_3D('',#485,#394,#395);
#331=AXIS2_PLACEMENT_3D('',#487,#396,#397);
#332=AXIS2_PLACEMENT_3D('',#488,#398,#399);
#333=AXIS2_PLACEMENT_3D('',#490,#400,#401);
#334=AXIS2_PLACEMENT_3D('',#491,#402,#403);
#335=AXIS2_PLACEMENT_3D('',#493,#404,#405);
#336=AXIS2_PLACEMENT_3D('',#494,#406,#407);
#337=AXIS2_PLACEMENT_3D('',#496,#408,#409);
#338=AXIS2_PLACEMENT_3D('',#497,#410,#411);
#339=AXIS2_PLACEMENT_3D('',#527,#412,#413);
#340=AXIS2_PLACEMENT_3D('',#528,#414,#415);
#341=AXIS2_PLACEMENT_3D('',#529,#416,#417);
#342=AXIS2_PLACEMENT_3D('',#530,#418,#419);
#343=AXIS2_PLACEMENT_3D('',#532,#420,#421);
#344=AXIS2_PLACEMENT_3D('',#534,#422,#423);
#345=AXIS2_PLACEMENT_3D('',#535,#424,#425);
#346=AXIS2_PLACEMENT_3D('',#537,#426,#427);
#347=AXIS2_PLACEMENT_3D('',#538,#428,#429);
#348=AXIS2_PLACEMENT_3D('',#540,#430,#431);
#349=AXIS2_PLACEMENT_3D('',#541,#432,#433);
#350=AXIS2_PLACEMENT_3D('',#543,#434,#435);
#351=AXIS2_PLACEMENT_3D('',#544,#436,#437);
#352=AXIS2_PLACEMENT_3D('',#546,#438,#439);
#353=AXIS2_PLACEMENT_3D('',#547,#440,#441);
#354=AXIS2_PLACEMENT_3D('',#549,#442,#443);
#355=AXIS2_PLACEMENT_3D('',#550,#444,#445);
#356=AXIS2_PLACEMENT_3D('',#552,#446,#447);
#357=AXIS2_PLACEMENT_3D('',#553,#448,#449);
#358=AXIS2_PLACEMENT_3D('',#569,#450,#451);
#359=AXIS2_PLACEMENT_3D('',#571,#452,#453);
#360=AXIS2_PLACEMENT_3D('',#572,#454,#455);
#361=AXIS2_PLACEMENT_3D('',#574,#456,#457);
#362=AXIS2_PLACEMENT_3D('',#575,#458,#459);
#363=AXIS2_PLACEMENT_3D('',#576,#460,#461);
#364=DIRECTION('',(0.,0.,1.));
#365=DIRECTION('',(1.,0.,0.));
#366=DIRECTION('',(0.,0.,1.));
#367=DIRECTION('',(1.,0.,0.));
#368=DIRECTION('',(2.34291072916505E-15,1.54229919591423E-15,1.));
#369=DIRECTION('',(7.48026555201044E-16,1.,-1.49605311040209E-15));
#370=DIRECTION('',(0.,0.,-1.));
#371=DIRECTION('',(1.,0.,0.));
#372=DIRECTION('',(-2.34291072916505E-15,-1.54229919591423E-15,-1.));
#373=DIRECTION('',(-5.93596844545545E-16,-1.,1.18719368909109E-15));
#374=DIRECTION('',(2.34291072916505E-15,1.97858060990616E-15,1.));
#375=DIRECTION('',(-7.66759662268919E-16,-1.,1.53351932453784E-15));
#376=DIRECTION('',(-2.34291072916505E-15,-1.54229919591423E-15,-1.));
#377=DIRECTION('',(-6.79941875347071E-16,-1.,1.35988375069414E-15));
#378=DIRECTION('',(-2.34291072916505E-15,-2.4148620238981E-15,-1.));
#379=DIRECTION('',(0.,1.,-1.94131904916163E-15));
#380=DIRECTION('',(2.34291072916505E-15,2.4148620238981E-15,1.));
#381=DIRECTION('',(0.,1.,-1.95046495393195E-15));
#382=DIRECTION('',(-2.34291072916505E-15,-2.4148620238981E-15,-1.));
#383=DIRECTION('',(4.02455846426619E-16,1.,-2.41473507855972E-15));
#384=DIRECTION('',(-2.34291072916505E-15,-1.97858060990616E-15,-1.));
#385=DIRECTION('',(0.,-1.,1.69026560943475E-15));
#386=DIRECTION('',(2.34291072916505E-15,2.4148620238981E-15,1.));
#387=DIRECTION('',(-7.22903983838925E-16,-1.,2.8916159353557E-15));
#388=DIRECTION('',(2.34291072916505E-15,2.4148620238981E-15,1.));
#389=DIRECTION('',(0.,-1.,2.1748647100932E-15));
#390=DIRECTION('',(-2.34291072916505E-15,-2.4148620238981E-15,-1.));
#391=DIRECTION('',(7.25437374399723E-16,1.,-2.90174949759889E-15));
#392=DIRECTION('',(2.34291072916505E-15,2.4148620238981E-15,1.));
#393=DIRECTION('',(0.,1.,-3.37239142654651E-15));
#394=DIRECTION('',(-2.34291072916505E-15,-2.4148620238981E-15,-1.));
#395=DIRECTION('',(0.,1.,-3.34514282305886E-15));
#396=DIRECTION('',(-2.34291072916505E-15,-2.4148620238981E-15,-1.));
#397=DIRECTION('',(4.02455846426619E-16,1.,-2.41473507855972E-15));
#398=DIRECTION('',(2.34291072916505E-15,2.4148620238981E-15,1.));
#399=DIRECTION('',(0.,-1.,4.10465333581333E-15));
#400=DIRECTION('',(-2.34291072916505E-15,-2.4148620238981E-15,-1.));
#401=DIRECTION('',(0.,1.,-2.11386731259042E-15));
#402=DIRECTION('',(-2.34291072916505E-15,-2.4148620238981E-15,-1.));
#403=DIRECTION('',(0.,-1.,2.84219737487614E-15));
#404=DIRECTION('',(2.34291072916505E-15,2.4148620238981E-15,1.));
#405=DIRECTION('',(0.,-1.,2.10312901966199E-15));
#406=DIRECTION('',(-2.34291072916505E-15,-2.4148620238981E-15,-1.));
#407=DIRECTION('',(0.,0.999999999999999,0.));
#408=DIRECTION('',(-2.34291072916505E-15,-2.4148620238981E-15,-1.));
#409=DIRECTION('',(4.02455846426619E-16,1.,-2.41473507855972E-15));
#410=DIRECTION('',(-2.34291072916505E-15,-2.4148620238981E-15,-1.));
#411=DIRECTION('',(0.,1.,0.));
#412=DIRECTION('',(-2.34291072916505E-15,-2.4148620238981E-15,-1.));
#413=DIRECTION('',(0.,1.,-2.70423179874053E-15));
#414=DIRECTION('',(-2.34291072916505E-15,-2.4148620238981E-15,-1.));
#415=DIRECTION('',(0.,1.,-1.7065907437258E-15));
#416=DIRECTION('',(-2.34291072916505E-15,-1.97858060990616E-15,-1.));
#417=DIRECTION('',(4.51242189484525E-16,1.,-1.8049687579381E-15));
#418=DIRECTION('',(0.,0.,-1.));
#419=DIRECTION('',(-1.,0.,0.));
#420=DIRECTION('',(0.,0.,1.));
#421=DIRECTION('',(-1.,0.,0.));
#422=DIRECTION('',(0.,0.,-1.));
#423=DIRECTION('',(-1.,0.,0.));
#424=DIRECTION('',(0.,0.,-1.));
#425=DIRECTION('',(1.,0.,0.));
#426=DIRECTION('',(0.,0.,-1.));
#427=DIRECTION('',(1.,0.,-6.27028428013975E-15));
#428=DIRECTION('',(-2.34291072916505E-15,-1.54229919591423E-15,-1.));
#429=DIRECTION('',(7.45950870391933E-16,1.,-1.49190174078387E-15));
#430=DIRECTION('',(2.34291072916505E-15,1.54229919591423E-15,1.));
#431=DIRECTION('',(4.02455846426619E-16,1.,-1.55431223447522E-15));
#432=DIRECTION('',(-2.34291072916505E-15,-1.54229919591423E-15,-1.));
#433=DIRECTION('',(-7.39064721491916E-16,-1.,1.47812944298383E-15));
#434=DIRECTION('',(2.34291072916505E-15,1.54229919591423E-15,1.));
#435=DIRECTION('',(-3.83019745781414E-16,-1.,-1.53207898312565E-15));
#436=DIRECTION('',(-2.34291072916505E-15,-1.54229919591423E-15,-1.));
#437=DIRECTION('',(-6.94045550639617E-16,-1.,1.38809110127923E-15));
#438=DIRECTION('',(-2.34291072916505E-15,-1.54229919591423E-15,-1.));
#439=DIRECTION('',(-4.02455846426619E-16,-1.,1.55431223447522E-15));
#440=DIRECTION('',(-2.34291072916505E-15,-1.54229919591423E-15,-1.));
#441=DIRECTION('',(6.92205577042012E-16,1.,-1.38441115408402E-15));
#442=DIRECTION('',(-2.34291072916505E-15,-1.54229919591423E-15,-1.));
#443=DIRECTION('',(-3.70562842894743E-16,-1.,1.48225137157897E-15));
#444=DIRECTION('',(2.02334209795794E-15,1.54229919591423E-15,1.));
#445=DIRECTION('',(-1.,3.04520094795327E-16,2.43616075836262E-15));
#446=DIRECTION('',(2.34291072916505E-15,1.54229919591423E-15,1.));
#447=DIRECTION('',(4.02455846426619E-16,1.,-1.55431223447522E-15));
#448=DIRECTION('',(-2.02334209795794E-15,-1.54229919591423E-15,-1.));
#449=DIRECTION('',(-1.,2.97239196123777E-16,2.37791356899021E-15));
#450=DIRECTION('',(-2.34291072916505E-15,-1.54229919591423E-15,-1.));
#451=DIRECTION('',(-5.58069279493896E-16,-1.,1.11613855898779E-15));
#452=DIRECTION('',(-2.34291072916505E-15,-1.54229919591423E-15,-1.));
#453=DIRECTION('',(-4.02455846426619E-16,-1.,1.55431223447522E-15));
#454=DIRECTION('',(2.34291072916505E-15,1.54229919591423E-15,1.));
#455=DIRECTION('',(1.,0.,-2.30566339593087E-15));
#456=DIRECTION('',(2.34291072916505E-15,1.54229919591423E-15,1.));
#457=DIRECTION('',(-2.71828750772511E-16,-1.,-1.08731500309004E-15));
#458=DIRECTION('',(0.,0.,-1.));
#459=DIRECTION('',(-1.,0.,0.));
#460=DIRECTION('',(0.,0.,-1.));
#461=DIRECTION('',(-1.,0.,0.));
#462=CARTESIAN_POINT('',(0.,0.,0.));
#463=CARTESIAN_POINT('',(-14.6025,1.86749999999999,235.));
#464=CARTESIAN_POINT('',(-109.205,-35.5,170.333544501123));
#465=CARTESIAN_POINT('',(-109.205,-16.9474663882961,170.333544501123));
#466=CARTESIAN_POINT('',(-109.205,-35.5,171.237228281819));
#467=CARTESIAN_POINT('',(-89.1147509363451,-35.5,171.237228281819));
#468=CARTESIAN_POINT('',(-109.205,-35.5,177.791374535703));
#469=CARTESIAN_POINT('',(-109.205,-35.5,170.170456876852));
#470=CARTESIAN_POINT('',(-109.205,-53.5992669420672,170.170456876852));
#471=CARTESIAN_POINT('',(-109.205,-35.5,173.204));
#472=CARTESIAN_POINT('',(-109.205,-35.5,169.0575));
#473=CARTESIAN_POINT('',(-109.205,-21.2027232965054,169.0575));
#474=CARTESIAN_POINT('',(-109.205,-35.5,169.0575));
#475=CARTESIAN_POINT('',(-109.205,-21.2697645068289,169.0575));
#476=CARTESIAN_POINT('',(-109.205,-35.5,169.0575));
#477=CARTESIAN_POINT('',(-109.205,-35.5,169.541563770643));
#478=CARTESIAN_POINT('',(-109.205,-51.9208367375532,169.541563770643));
#479=CARTESIAN_POINT('',(-109.205,-35.5,173.9575));
#480=CARTESIAN_POINT('',(-109.205,-35.5,169.282650272196));
#481=CARTESIAN_POINT('',(-109.205,-48.2619780149173,169.282650272196));
#482=CARTESIAN_POINT('',(-109.205,-35.5,173.9575));
#483=CARTESIAN_POINT('',(-109.205,-35.4999999999979,169.0575));
#484=CARTESIAN_POINT('',(-109.205,-27.2697645068268,169.0575));
#485=CARTESIAN_POINT('',(-109.205,-35.4999999999979,169.0575));
#486=CARTESIAN_POINT('',(-109.205,-27.2027232965031,169.0575));
#487=CARTESIAN_POINT('',(-109.205,-35.5,169.0575));
#488=CARTESIAN_POINT('',(-109.205,-35.4999999999979,169.282650272196));
#489=CARTESIAN_POINT('',(-109.205,-42.2619780149157,169.282650272196));
#490=CARTESIAN_POINT('',(-109.205,-35.4999999999979,173.9575));
#491=CARTESIAN_POINT('',(-109.205,-35.4999999999979,169.282650272196));
#492=CARTESIAN_POINT('',(-109.205,-45.2655341817464,169.282650272196));
#493=CARTESIAN_POINT('',(-109.205,-35.4999999999979,173.9575));
#494=CARTESIAN_POINT('',(-109.205,-35.4999999999979,169.0575));
#495=CARTESIAN_POINT('',(-109.205,-34.4775748304756,169.0575));
#496=CARTESIAN_POINT('',(-109.205,-35.5,169.0575));
#497=CARTESIAN_POINT('',(-109.205,-35.4999999999979,169.398671585929));
#498=CARTESIAN_POINT('',(-109.205,-31.2965766338676,169.398671585929));
#499=CARTESIAN_POINT('',(-109.205,-39.7034233661281,169.398671585929));
#500=CARTESIAN_POINT('',(-100.79815326774,-39.7034233661281,169.398671585929));
#501=CARTESIAN_POINT('',(-100.79815326774,-31.2965766338677,169.398671585929));
#502=CARTESIAN_POINT('',(-109.205,-31.2965766338677,169.398671585929));
#503=CARTESIAN_POINT('',(-117.61184673226,-31.2965766338677,169.398671585929));
#504=CARTESIAN_POINT('',(-117.61184673226,-39.7034233661281,169.398671585929));
#505=CARTESIAN_POINT('',(-109.205,-39.7034233661281,169.398671585929));
#506=CARTESIAN_POINT('',(-109.205,-38.6572877759278,169.171657848416));
#507=CARTESIAN_POINT('',(-102.89042444814,-38.6572877759278,169.171657848416));
#508=CARTESIAN_POINT('',(-102.89042444814,-32.342712224068,169.171657848416));
#509=CARTESIAN_POINT('',(-109.205,-32.342712224068,169.171657848416));
#510=CARTESIAN_POINT('',(-115.51957555186,-32.342712224068,169.171657848416));
#511=CARTESIAN_POINT('',(-115.51957555186,-38.6572877759278,169.171657848416));
#512=CARTESIAN_POINT('',(-109.205,-38.6572877759278,169.171657848416));
#513=CARTESIAN_POINT('',(-109.205,-37.5929086631356,169.0575));
#514=CARTESIAN_POINT('',(-105.019182673725,-37.5929086631356,169.0575));
#515=CARTESIAN_POINT('',(-105.019182673725,-33.4070913368602,169.0575));
#516=CARTESIAN_POINT('',(-109.205,-33.4070913368601,169.0575));
#517=CARTESIAN_POINT('',(-113.390817326276,-33.4070913368601,169.0575));
#518=CARTESIAN_POINT('',(-113.390817326276,-37.5929086631356,169.0575));
#519=CARTESIAN_POINT('',(-109.205,-37.5929086631356,169.0575));
#520=CARTESIAN_POINT('',(-109.205,-36.5224251695201,169.0575));
#521=CARTESIAN_POINT('',(-107.160149660956,-36.5224251695201,169.0575));
#522=CARTESIAN_POINT('',(-107.160149660956,-34.4775748304757,169.0575));
#523=CARTESIAN_POINT('',(-109.205,-34.4775748304756,169.0575));
#524=CARTESIAN_POINT('',(-111.249850339045,-34.4775748304756,169.0575));
#525=CARTESIAN_POINT('',(-111.249850339045,-36.5224251695201,169.0575));
#526=CARTESIAN_POINT('',(-109.205,-36.5224251695201,169.0575));
#527=CARTESIAN_POINT('',(-109.205,-35.4999999999979,164.512395447906));
#528=CARTESIAN_POINT('',(-109.205,-35.4999999999989,164.512395447906));
#529=CARTESIAN_POINT('',(-109.205,-35.5,160.529449016853));
#530=CARTESIAN_POINT('',(-109.205,-35.5,168.8));
#531=CARTESIAN_POINT('',(-132.28134237612,-35.5,168.8));
#532=CARTESIAN_POINT('',(-109.205,-35.4999999999999,168.8));
#533=CARTESIAN_POINT('',(-132.146690907847,-35.4999999999999,168.8));
#534=CARTESIAN_POINT('',(-109.205,-35.5000000000003,168.8));
#535=CARTESIAN_POINT('',(-109.205,-35.4999999999999,169.092893218813));
#536=CARTESIAN_POINT('',(-86.9704158733394,-35.4999999999999,169.092893218813));
#537=CARTESIAN_POINT('',(-109.205,-35.4999999999999,168.8));
#538=CARTESIAN_POINT('',(-109.205,-35.5,171.79924));
#539=CARTESIAN_POINT('',(-109.205,-16.8958420605865,171.79924));
#540=CARTESIAN_POINT('',(-99.0867492,-35.04634575,171.79924));
#541=CARTESIAN_POINT('',(-109.205,-35.5,181.73));
#542=CARTESIAN_POINT('',(-109.205,-54.2775,181.73));
#543=CARTESIAN_POINT('',(-109.205,-35.5,181.73));
#544=CARTESIAN_POINT('',(-109.205,-35.5,181.73));
#545=CARTESIAN_POINT('',(-109.205,-55.4955,181.73));
#546=CARTESIAN_POINT('',(-109.205,-35.5,181.73));
#547=CARTESIAN_POINT('',(-109.205,-35.5,178.685));
#548=CARTESIAN_POINT('',(-109.205,-15.4513493272936,178.685));
#549=CARTESIAN_POINT('',(-109.205,-35.5,181.73));
#550=CARTESIAN_POINT('',(-109.205,-35.5,178.685));
#551=CARTESIAN_POINT('',(-131.991325180185,-35.5,178.685));
#552=CARTESIAN_POINT('',(-109.205,-35.5,178.685));
#553=CARTESIAN_POINT('',(-109.205,-35.5,200.));
#554=CARTESIAN_POINT('',(-132.549478098433,-35.5,200.));
#555=CARTESIAN_POINT('',(-109.205,-57.5390132969628,150.146310565368));
#556=CARTESIAN_POINT('',(-109.205,-59.6059992326234,229.081318836868));
#557=CARTESIAN_POINT('',(-65.1269734060746,-57.5390132969628,150.146310565368));
#558=CARTESIAN_POINT('',(-60.9930015347532,-59.6059992326233,229.081318836868));
#559=CARTESIAN_POINT('',(-65.1269734060746,-13.4609867030373,150.146310565368));
#560=CARTESIAN_POINT('',(-60.9930015347532,-11.3940007673766,229.081318836868));
#561=CARTESIAN_POINT('',(-109.205,-13.4609867030372,150.146310565368));
#562=CARTESIAN_POINT('',(-109.205,-11.3940007673765,229.081318836868));
#563=CARTESIAN_POINT('',(-153.283026593926,-13.4609867030372,150.146310565368));
#564=CARTESIAN_POINT('',(-157.416998465247,-11.3940007673766,229.081318836869));
#565=CARTESIAN_POINT('',(-153.283026593926,-57.5390132969628,150.146310565369));
#566=CARTESIAN_POINT('',(-157.416998465247,-59.6059992326233,229.081318836869));
#567=CARTESIAN_POINT('',(-109.205,-57.5390132969628,150.146310565368));
#568=CARTESIAN_POINT('',(-109.205,-59.6059992326234,229.081318836868));
#569=CARTESIAN_POINT('',(-109.205,-35.5,200.));
#570=CARTESIAN_POINT('',(-109.205,-60.3675,200.));
#571=CARTESIAN_POINT('',(-109.205,-35.5,200.));
#572=CARTESIAN_POINT('',(-109.205,-35.5,169.773823051692));
#573=CARTESIAN_POINT('',(-85.1290002989047,-35.5,169.773823051692));
#574=CARTESIAN_POINT('',(-109.205,-35.5,200.));
#575=CARTESIAN_POINT('',(-109.205,-35.5,169.8));
#576=CARTESIAN_POINT('',(-109.205,-35.4999999999999,169.8));
#577=MECHANICAL_DESIGN_GEOMETRIC_PRESENTATION_REPRESENTATION('',(#307,#308),
#578);
#578=(
GEOMETRIC_REPRESENTATION_CONTEXT(3)
GLOBAL_UNCERTAINTY_ASSIGNED_CONTEXT((#579))
GLOBAL_UNIT_ASSIGNED_CONTEXT((#585,#581,#580))
REPRESENTATION_CONTEXT('New Designe Dhukkan','TOP_LEVEL_ASSEMBLY_PART')
);
#579=UNCERTAINTY_MEASURE_WITH_UNIT(LENGTH_MEASURE(0.0254),#585,
'DISTANCE_ACCURACY_VALUE','Maximum Tolerance applied to model');
#580=(
NAMED_UNIT(*)
SI_UNIT($,.STERADIAN.)
SOLID_ANGLE_UNIT()
);
#581=(
CONVERSION_BASED_UNIT('DEGREE',#583)
NAMED_UNIT(#582)
PLANE_ANGLE_UNIT()
);
#582=DIMENSIONAL_EXPONENTS(0.,0.,0.,0.,0.,0.,0.);
#583=PLANE_ANGLE_MEASURE_WITH_UNIT(PLANE_ANGLE_MEASURE(0.0174532925),#584);
#584=(
NAMED_UNIT(*)
PLANE_ANGLE_UNIT()
SI_UNIT($,.RADIAN.)
);
#585=(
LENGTH_UNIT()
NAMED_UNIT(*)
SI_UNIT(.MILLI.,.METRE.)
);
ENDSEC;
END-ISO-10303-21;
